<svg viewBox="0 0 125 125" xmlns="http://www.w3.org/2000/svg" xml:space="preserve" style="fill-rule:evenodd;clip-rule:evenodd;stroke-linejoin:round;stroke-miterlimit:2"><path d="M152.7 293.759h-.071a1.665 1.665 0 0 1-1.657-1.657c0-.909.748-1.657 1.657-1.657.916 0 1.7.7 1.7 1.657-.027.898-.729 1.698-1.629 1.657zm-10.065-.162a1.668 1.668 0 0 1-1.642-2.062c.204-.816.945-1.324 1.8-1.246.842.1 1.5.8 1.5 1.651 0 .96-.693 1.66-1.693 1.657h.035zm20.006-.366a1.667 1.667 0 0 1-1.655-1.658c0-.758.519-1.423 1.254-1.608 1.01-.246 2.1.6 2.1 1.605 0 .861-.66 1.57-1.502 1.651a.38.38 0 0 0-.238.01h.041zm-29.993-.495c-.136 0-.304-.02-.434-.052a1.662 1.662 0 0 1-1.272-1.612 1.665 1.665 0 0 1 1.861-1.644c.842.1 1.5.8 1.5 1.651.003.921-.703 1.621-1.703 1.657h.048zm39.952-.735h-.012a1.665 1.665 0 0 1-1.656-1.656v-.001c0-.812.586-1.489 1.359-1.632.796-.171 1.6.3 1.9 1.101a1.67 1.67 0 0 1-1.049 2.098c-.164.089-.342.089-.542.09zm-49.854-.829c-.108 0-.217-.01-.325-.033a1.663 1.663 0 0 1-1.364-1.631c0-1.068 1.117-1.875 2.144-1.587.881.2 1.4 1.2 1.1 2.046-.17.733-.801 1.233-1.601 1.205h.046zm59.681-1.104h-.001a1.665 1.665 0 0 1-1.656-1.656v-.001c0-.812.586-1.489 1.36-1.632.806-.165 1.6.3 1.9 1.101a1.67 1.67 0 0 1-1.049 2.098c-.165.022-.381.122-.581.09h.027zm-69.451-1.155c-.149 0-.301-.02-.452-.065l-.102-.029a1.668 1.668 0 0 1-1.048-2.098 1.654 1.654 0 0 1 2.096-1.049c.855.3 1.3 1.2 1.1 2.1-.244.628-.87 1.128-1.57 1.141h-.024zm79.124-1.467a1.667 1.667 0 0 1-1.655-1.658c0-.758.519-1.423 1.254-1.608.877-.214 1.8.3 2 1.14a1.653 1.653 0 0 1-1.052 2.033c-.042.013-.113.035-.155 0-.123.047-.292.047-.392.093zm-88.708-1.479c-.149 0-.301-.02-.451-.065a1.663 1.663 0 0 1-1.262-1.611c0-.91.749-1.659 1.659-1.659.187 0 .373.032.55.094.855.3 1.3 1.2 1.1 2.1-.246.674-.888 1.174-1.588 1.141h-.008zm98.174-1.826a1.667 1.667 0 0 1-1.65-1.66c0-.624.352-1.197.908-1.48.861-.288 1.9.1 2.2.997.281.842-.036 1.7-.845 2.017-.186.085-.379.085-.579.126h-.034zM94.09 282.347a1.835 1.835 0 0 1-.579-.091 1.663 1.663 0 0 1-1.168-1.585c0-.911.749-1.66 1.66-1.66.289 0 .572.075.823.218.867.3 1.2 1.2.9 2-.213.671-.926 1.071-1.626 1.118h-.01zm116.676-2.169a1.667 1.667 0 0 1-1.654-1.659c0-.553.276-1.07.735-1.378a2.03 2.03 0 0 1 .424-.207c.871-.285 1.8.2 2.1 1.049.272.819-.13 1.7-.907 2-.226.117-.464.217-.664.195h-.034zm-125.812-2.117c-.275 0-.552-.068-.804-.21a1.661 1.661 0 0 1-.878-1.463c0-.909.749-1.658 1.658-1.658.177 0 .353.028.521.084.139 0 .3.1.4.211.761.5 1 1.5.5 2.3-.336.475-.851.775-1.351.736h-.046zm134.705-2.486c-.693 0-1.34-.44-1.573-1.133a1.665 1.665 0 0 1 .796-1.988 1.682 1.682 0 0 1 2.2.528c.508.8.3 1.79-.46 2.299a1.63 1.63 0 0 1-.424.2c-.19.019-.398.119-.498.094h-.041zm-143.453-2.421c-.282 0-.559-.072-.805-.21a1.661 1.661 0 0 1-.878-1.463c0-.909.749-1.658 1.658-1.658.177 0 .353.028.521.084.139 0 .3.1.4.21.761.5 1 1.5.5 2.3-.334.483-.902.783-1.402.737h.006zm152.005-2.807h-.004a1.665 1.665 0 0 1-1.656-1.656c0-.555.279-1.073.741-1.38.757-.505 1.8-.311 2.3.45.505.8.3 1.78-.447 2.289h-.029c-.267.25-.616.25-.916.297h.011zm-160.399-2.713c-.311 0-.625-.087-.905-.275a1.661 1.661 0 0 1-.403-2.434 1.675 1.675 0 0 1 2.331-.259c.693.6.8 1.6.3 2.3-.31.434-.835.634-1.335.668h.012zm168.588-3.098h-.024a1.666 1.666 0 0 1-1.658-1.658c0-.566.29-1.094.767-1.398a1.656 1.656 0 0 1 2.3.46c.489.7.3 1.725-.388 2.2-.3.26-.697.36-.997.396zm-176.474-2.971a1.772 1.772 0 0 1-1.268-.528 1.665 1.665 0 0 1 0-2.344c.647-.647 1.696-.647 2.3 0 .714.6.8 1.6.2 2.3-.269.407-.758.607-1.258.572h.026zm184.186-3.403a1.665 1.665 0 0 1-1.657-1.657c0-.327.097-.647.278-.919.12-.181.304-.363.486-.482a1.667 1.667 0 0 1 2.3.459c.466.7.3 1.628-.288 2.2-.312.237-.731.437-1.131.399h.012zm-191.625-3.201c-.422 0-.851-.143-1.186-.408a2.184 2.184 0 0 1-.262-.256 1.658 1.658 0 0 1 .212-2.334c.707-.589 1.75-.489 2.3.21.714.6.7 1.5.1 2.2-.219.427-.651.627-1.151.588h-.013zm198.903-3.704a1.666 1.666 0 0 1-1.657-1.658c0-.439.174-.861.485-1.172a1.684 1.684 0 0 1 2.357-.013c.644.6.7 1.7 0 2.334l-.023.023c-.314.329-.752.529-1.152.486h-.01zm-207.288-3.998a1.658 1.658 0 0 1 0-2.344c.647-.648 1.696-.647 2.3 0l-2.3 2.344zm214.098-3.392h-.041a1.665 1.665 0 0 1-1.657-1.657c0-.413.154-.812.433-1.117a1.663 1.663 0 0 1 2.166-.288c.761.5 1 1.5.5 2.298-.12.181-.301.366-.482.5-.322.197-.619.297-.919.264zm-219.42-3.714c-.487 0-.965-.214-1.288-.612a1.665 1.665 0 0 1-.029-2.107 1.674 1.674 0 0 1 2.331-.259c.133.1.3.3.4.401.508.8.3 1.79-.46 2.3-.319.224-.634.324-.934.277h-.02zm225.62-4.14a1.666 1.666 0 0 1-1.657-1.658c0-.439.174-.861.485-1.172.505-.764 1.441-.858 2.205-.346.761.5.9 1.7.4 2.412-.061.09-.149.201-.226.3-.359.351-.807.451-1.207.464zm-231.586-3.914a1.658 1.658 0 0 1-1.329-.664 1.663 1.663 0 0 1 .136-2.191c.647-.647 1.696-.647 2.3 0 .078.1.2.2.2.278.508.8.3 1.79-.46 2.3-.213.178-.561.278-.861.277h.014zm237.286-4.364h-.032a1.663 1.663 0 0 1-1.655-1.655c0-.328.098-.649.28-.921a1.682 1.682 0 0 1 2.308-.476c.76.5 1 1.5.5 2.286h-.02c-.351.531-.881.731-1.381.766zm-242.804-4.169a1.482 1.482 0 0 1-1.323-.78 1.658 1.658 0 0 1-.248-.872c0-.909.748-1.657 1.657-1.657a1.66 1.66 0 0 1 1.409.785c.409.8.1 1.916-.682 2.327-.266.131-.509.231-.809.197h-.004zm247.852-4.487c-.178 0-.355-.028-.524-.084a1.67 1.67 0 0 1-1.049-2.098c.049-.139.13-.301.21-.424a1.669 1.669 0 0 1 2.299-.459c.725.5.9 1.4.5 2.2a1.615 1.615 0 0 1-1.484.865h.048zm-252.51-4.25c-.602 0-1.178-.33-1.467-.906l-.015-.029a1.667 1.667 0 0 1 .742-2.224 1.627 1.627 0 0 1 2.2.741c.409.8.1 1.829-.735 2.237-.217.152-.463.152-.763.181h.038zm256.964-4.743a1.668 1.668 0 0 1-1.658-1.66c0-.239.052-.476.152-.693.343-.777 1.224-1.162 2.043-.906.868.3 1.3 1.2 1 2.098a1.476 1.476 0 0 1-.207.4c-.271.475-.832.775-1.332.761h.002zm-260.928-4.241c-.662 0-1.334-.427-1.641-1.043a2.13 2.13 0 0 1-.138-.372 1.663 1.663 0 0 1 1.206-2.01c.882-.217 1.8.3 2 1.207.409.8 0 1.661-.798 2.1-.194.073-.403.073-.603.118h-.026zm264.726-5.043a1.669 1.669 0 0 1-1.657-1.66c0-.256.06-.509.174-.739.291-.868 1.198-1.237 2.059-.955.867.3 1.3 1.3 1 2.188-.026.075-.068.178-.103.2-.282.664-.873.964-1.473.966zm-268.384-4.497a1.638 1.638 0 0 1-1.602-1.275 1.663 1.663 0 0 1 1.206-2.01c.882-.213 1.8.3 2 1.208.217.864-.283 1.761-1.139 2-.15.072-.281.072-.481.077h.016zm271.517-5.034a1.668 1.668 0 0 1-1.609-2.059l3.218.8c-.188.788-.842 1.288-1.642 1.259h.033zM12.33 186.823c-.73 0-1.437-.544-1.677-1.263a1.666 1.666 0 0 1-.096-.555c0-.833.628-1.543 1.454-1.646.916-.13 1.7.5 1.9 1.437.29.871-.212 1.667-1.081 2-.197.004-.33.004-.53.027h.03zm276.647-5.273a1.665 1.665 0 0 1-1.657-1.657c0-.178.035-.389.09-.557a1.678 1.678 0 0 1 2.098-1.049c.802.3 1.3 1.1 1.1 1.903-.142.81-.808 1.41-1.608 1.36h-.023zM8.494 175.606a1.663 1.663 0 0 1 1.206-2.01c.879-.214 1.8.3 2 1.207l-3.206.803zm282.238-3.929a1.668 1.668 0 0 1-1.647-1.849 1.67 1.67 0 0 1 1.651-1.499c.916 0 1.7.7 1.7 1.657 0 .136-.02.304-.052.4-.231.814-.884 1.314-1.684 1.291h.032zM8.734 167.086c-.813 0-1.541-.68-1.679-1.502a1.664 1.664 0 0 1 1.628-1.961h.003c.916 0 1.7.7 1.7 1.657.151.903-.469 1.638-1.373 1.8a.967.967 0 0 1-.313.006h.034zm283.04-5.377a1.667 1.667 0 0 1-1.647-1.845 1.67 1.67 0 0 1 1.651-1.502c.916 0 1.7.7 1.7 1.657 0 .136-.019.304-.052.4-.231.781-.926 1.281-1.626 1.29h-.026zM7.965 156.853c-.89 0-1.61-.589-1.649-1.467a1.665 1.665 0 0 1 1.449-1.748c.918-.136 1.7.5 1.9 1.437C9.615 156 8.9 156.9 8 156.853h-.035zm-.022-9.809c-.915-.002-1.65-.843-1.65-1.758v-.028a1.672 1.672 0 0 1 1.894-1.648c.907.1 1.5 1 1.4 1.876.005.914-.687 1.514-1.687 1.558h.043zm283.799-5.966a1.66 1.66 0 0 1-1.593-1.203 1.88 1.88 0 0 1-.068-.489c0-.914.741-1.657 1.657-1.657.865 0 1.6.7 1.7 1.504a1.7 1.7 0 0 1-1.191 1.8 1.154 1.154 0 0 1-.547.045h.042zM8.605 136.805c-.068 0-.134-.005-.202-.015-.882-.126-1.514-.8-1.426-1.672a1.665 1.665 0 0 1 1.653-1.525c.916 0 1.7.7 1.7 1.657-.163.85-.93 1.55-1.73 1.555h.005zm282.095-5.697h-.049a1.67 1.67 0 0 1-1.661-1.661v-.029c0-.915.741-1.657 1.657-1.657.858 0 1.6.7 1.6 1.492a1.714 1.714 0 0 1-1.12 1.8c-.126.047-.327.047-.427.055zm-280.684-3.964c-.094 0-.187-.007-.28-.02-.906-.129-1.505-1.097-1.376-2.004.015-.099.044-.228.076-.322a1.658 1.658 0 0 1 2.096-1.048c.868.3 1.3 1.2 1 2.1-.067.85-.732 1.25-1.532 1.294h.016zm278.851-5.897a1.665 1.665 0 0 1-1.632-1.364 1.661 1.661 0 0 1 1.172-1.918c.887-.254 1.8.3 2 1.138.042.1.1.3.1.487.018.91-.707 1.61-1.607 1.657h-.033zm-276.813-4.16c-.134 0-.27-.018-.404-.057-.865-.246-1.395-1.034-1.177-1.895a1.669 1.669 0 0 1 1.886-1.256c.903.1 1.5 1 1.4 1.907-.25.714-.959 1.314-1.659 1.301h-.046zm274.32-5.563a1.644 1.644 0 0 1-1.563-1.123l3.156-1.012-1.593.455 1.596-.45a1.678 1.678 0 0 1-1.098 2.054c-.164.052-.372.052-.472.076h-.026zM14.841 107.55c-.16 0-.322-.023-.483-.073a1.648 1.648 0 0 1-1.077-2.124 1.653 1.653 0 0 1 2.096-1.047c.868.3 1.3 1.2 1 2.1-.183.694-.877 1.094-1.577 1.144h.041zm268.377-5.532a1.665 1.665 0 0 1-1.587-1.164 1.667 1.667 0 0 1 1.049-2.096c.835-.277 1.7.1 2.1.937.337.8 0 1.68-.696 2.1-.303.105-.584.205-.884.223h.018zM18.294 98.14a1.669 1.669 0 0 1-1.657-1.66c0-.223.045-.443.132-.648a1.665 1.665 0 0 1 1.993-.975c.88.3 1.4 1.2 1.1 2.049a1.43 1.43 0 0 1-.125.3c-.251.594-.837.894-1.437.934h-.006zm261.098-5.372c-.724 0-1.37-.473-1.587-1.164a1.667 1.667 0 0 1 1.049-2.096c.835-.278 1.7.1 2.1.937.337.8 0 1.68-.696 2.1-.303.155-.558.255-.858.223h-.008zM23.941 87.946l-3.046-1.305a1.656 1.656 0 0 1 2.176-.871c.841.33 1.229 1.33.829 2.13l.041.046zm250.974-4.142c-.612 0-1.177-.34-1.463-.881a1.663 1.663 0 0 1-.208-.804c0-.909.749-1.658 1.658-1.658a1.66 1.66 0 0 1 1.378.736c.081.1.2.3.2.424a1.672 1.672 0 0 1-1.049 2.1c-.167.079-.331.079-.531.083h.015zM27.157 80.233c-.262 0-.534-.063-.792-.193-.819-.409-1.107-1.478-.697-2.297.03-.061.081-.15.12-.207a1.655 1.655 0 0 1 2.299-.459c.762.5 1 1.5.5 2.3a1.827 1.827 0 0 1-1.387.856h-.043zm242.662-5.057c-.486 0-.968-.212-1.295-.622l2.59-2.072c.57.7.5 1.758-.259 2.3-.307.318-.655.418-1.055.394h.019zM32.507 71.641a1.65 1.65 0 0 1-1.378-2.558 1.666 1.666 0 0 1 2.435-.403c.714.6.8 1.6.3 2.3-.372.42-.864.62-1.364.661h.007zm231.615-4.711a1.657 1.657 0 0 1-1.379-.738 1.68 1.68 0 0 1 .392-2.271c.719-.526 1.709-.4 2.3.29.029 0 .1.1.1.143.508.8.3 1.79-.46 2.3a3.21 3.21 0 0 1-.975.276h.022zM38.45 63.56c-.367 0-.735-.12-1.039-.369a1.647 1.647 0 0 1-.215-2.359 1.67 1.67 0 0 1 2.336-.212c.702.6.8 1.6.2 2.3-.32.48-.832.68-1.232.64h-.05zm219.414-4.458c-.424 0-.848-.162-1.172-.486-.573-.714-.527-1.837.188-2.41.699-.557 1.641-.537 2.2.131.586.7.6 1.653-.061 2.279-.307.284-.719.484-1.119.486h-.036zM44.971 55.813c-.414 0-.822-.143-1.126-.447-.636-.634-.717-1.58-.109-2.227a1.664 1.664 0 0 1 2.265-.183c.714.6.8 1.6.3 2.331-.386.313-.901.513-1.301.526h-.029zm206.095-4.084c-.376 0-.751-.126-1.062-.384a1.666 1.666 0 0 1 .003-2.591c.693-.545 1.671-.46 2.3.168.579.6.6 1.6.1 2.2-.396.378-.907.578-1.307.607h-.034zM51.917 48.84a1.688 1.688 0 0 1-1.191-.511c-.646-.647-.591-1.745.057-2.392.044-.044.113-.107.16-.146.717-.573 1.759-.452 2.3.259.571.7.5 1.758-.259 2.3-.282.35-.684.45-1.084.49h.017zm191.856-3.99a1.677 1.677 0 0 1-1.666-1.67 1.656 1.656 0 0 1 2.702-1.285c.039 0 .1.1.1.125.647.6.6 1.7 0 2.3-.288.38-.709.58-1.109.53h-.027zM60.536 41.702l-2.119-2.551c.712-.573 1.755-.472 2.3.2.609.749.483 1.749-.217 2.351h.036zm175.471-3.203c-.424 0-.848-.162-1.172-.486-.761-.508-.855-1.444-.346-2.205.508-.76 1.651-.872 2.412-.366.091.1.2.1.3.227.647.6.6 1.7 0 2.3-.346.331-.801.531-1.201.53h.007zM68.454 35.61l-2.072-2.59c.717-.573 1.756-.455 2.3.259a1.638 1.638 0 0 1-.182 2.331h-.046zm159.366-2.903c-.249 0-.502-.057-.741-.175-.761-.509-1.068-1.596-.564-2.359.495-.743 1.389-1.02 2.146-.552.745.4 1 1.4.6 2.169-.25.61-.861.91-1.461.917h.02zM75.759 30.435c-.552 0-1.091-.27-1.405-.766a1.65 1.65 0 0 1 .468-2.256c.023-.015.071-.047.094-.06.787-.471 1.803-.215 2.3.568.471.8.2 1.803-.568 2.3-.295.179-.548.179-.848.214h-.041zm143.482-2.928c-.317 0-.638-.091-.919-.278-.819-.41-1.075-1.361-.667-2.18.411-.821 1.486-1.103 2.298-.698.062 0 .1.1.2.12.761.5 1 1.5.5 2.3-.354.429-.853.729-1.453.736h.041zM84.48 25.498a1.66 1.66 0 0 1-1.668-1.658c0-.621.351-1.19.906-1.469l.029-.015c.819-.404 1.811-.076 2.2.742.409.8.1 1.814-.742 2.224-.215.078-.505.178-.705.176h-.02zm125.83-2.574a1.678 1.678 0 0 1-1.667-1.67c0-.255.059-.507.171-.736a1.644 1.644 0 0 1 2.208-.749l.029.015c.819.4 1.1 1.4.7 2.224-.25.592-.851.892-1.451.916h.01zm-117-1.631c-.584 0-1.121-.364-1.418-.956-.408-.819.05-1.863.869-2.273.092-.045.218-.095.317-.125.885-.246 1.8.3 2 1.14.251.879-.259 1.797-1.14 2-.175.121-.438.221-.638.214h.01zm107.77-2.31a1.682 1.682 0 0 1-1.67-1.674c0-.184.03-.368.09-.542a1.653 1.653 0 0 1 2.072-1.025c.02 0 .1 0 .1.031.858.3 1.3 1.3 1 2.1-.29.727-.872 1.127-1.572 1.11h-.02zm-97.573-1.58-1.304-3.046c.833-.369 1.8 0 2.2.9.336.843-.103 1.743-.903 2.146h.007zm88.082-1.691c-.133 0-.266-.016-.401-.05l.803-3.214c.89.2 1.4 1.1 1.2 2-.181.752-.891 1.252-1.591 1.264h-.011zm-79.332-1.119c-.707 0-1.324-.487-1.533-1.219-.251-.881.333-1.813 1.214-2.066.06-.016.154-.039.215-.048.911-.165 1.8.5 1.9 1.363.15.902-.46 1.756-1.363 1.9a.702.702 0 0 1-.39.07h-.043zm69.649-1.468a1.662 1.662 0 0 1-1.672-1.66c0-.909.748-1.658 1.658-1.658.131 0 .262.016.39.047.816.2 1.4 1 1.3 1.8a1.782 1.782 0 0 1-1.682 1.471h.006zm-59.452-.94c-.83 0-1.665-.563-1.782-1.386-.126-.877.309-1.657 1.159-1.824.822-.18 1.7.3 1.9 1.096.29.869-.18 1.808-1.047 2.096-.061.033-.184.033-.184.018h-.046zm49.604-.953c-.07 0-.14-.005-.21-.013l.414-3.289c.907.1 1.6.9 1.4 1.9-.066.77-.762 1.37-1.562 1.402h-.042zm-39.707-.606-.533-3.271c.924-.149 1.7.5 1.9 1.4.128.845-.518 1.745-1.318 1.871h-.049zm29.75-.587c-.903-.15-1.664-1.016-1.515-1.92.146-.871.822-1.5 1.657-1.389.848.1 1.5.8 1.5 1.651.015.919-.743 1.619-1.643 1.658h.001zm-19.828-.301c-.916 0-1.777-.735-1.777-1.65 0-.892.592-1.612 1.467-1.649.874-.024 1.6.6 1.7 1.449.16.912-.463 1.712-1.363 1.85h-.027zm9.815-.193a1.67 1.67 0 0 1-1.674-1.657c0-.916.725-1.657 1.641-1.657h.032c.916 0 1.7.7 1.7 1.657 0 .957-.783 1.612-1.687 1.657h-.012z" style="fill:#a7a9ac;fill-rule:nonzero" transform="scale(.41667)"/><path d="M150 300C67.289 300 0 232.7 0 150S67.289 0 150 0s150 67.3 150 150-67.289 150-150 150zm0-298.3C68.203 1.7 1.7 68.2 1.7 150c0 81.8 66.5 148.3 148.3 148.343 81.795 0 148.343-66.548 148.343-148.343C298.343 68.2 231.8 1.7 150 1.657V1.7z" style="fill:#a7a9ac;fill-rule:nonzero" transform="scale(.41667)"/><path d="M45.37 247.787a1.772 1.772 0 0 1-1.268-.528 1.658 1.658 0 0 1 0-2.344c.647-.648 1.696-.647 2.3 0 .714.6.8 1.6.2 2.3-.269.385-.702.585-1.202.572h-.03zm-35.251-70.882a1.772 1.772 0 0 1-1.268-.528 1.665 1.665 0 0 1 0-2.344c.647-.647 1.696-.647 2.3 0 .714.6.8 1.6.2 2.3-.268.367-.751.567-1.251.572h.019zm12.41-87.914a1.772 1.772 0 0 1-1.268-.528 1.665 1.665 0 0 1 0-2.344c.647-.647 1.696-.647 2.3 0 .714.6.8 1.6.2 2.3-.269.381-.761.581-1.261.572h.029zm36.934-46.854a1.772 1.772 0 0 1-1.268-.528 1.665 1.665 0 0 1 0-2.344c.647-.647 1.696-.647 2.3 0 .714.6.8 1.6.2 2.3-.269.335-.795.535-1.195.572h-.037zm7.947-6.124a1.765 1.765 0 0 1-1.267-.528 1.665 1.665 0 0 1 0-2.344c.647-.648 1.696-.648 2.3 0 .714.6.8 1.6.2 2.3-.27.359-.743.559-1.243.572h.01zm35.437-18.524a1.772 1.772 0 0 1-1.268-.528 1.665 1.665 0 0 1 0-2.344c.647-.647 1.696-.647 2.3 0 .714.6.8 1.6.2 2.3-.269.383-.779.583-1.279.572h.047zm29.216-6.831c-.392 0-.79-.126-1.107-.382a7.616 7.616 0 0 1-.162-.146 1.657 1.657 0 0 1 0-2.344c.647-.647 1.696-.647 2.3 0 .712.6.8 1.6.2 2.3-.27.414-.794.614-1.194.572h-.037zm39.986.565a1.764 1.764 0 0 1-1.269-.528 1.657 1.657 0 0 1 0-2.344c.647-.647 1.696-.647 2.3 0 .712.6.8 1.6.2 2.3-.27.349-.78.549-1.28.572h.049zm19.533 4.435c-.391 0-.79-.126-1.107-.382a1.665 1.665 0 0 1-.162-2.49c.647-.647 1.697-.647 2.3 0 .712.6.8 1.6.2 2.3-.269.414-.713.614-1.213.572h-.018zm78.231 59.518c-.392 0-.79-.126-1.107-.382a1.665 1.665 0 0 1-.162-2.49c.648-.647 1.697-.647 2.3 0 .712.6.8 1.6.2 2.3-.27.396-.744.596-1.244.572h.013zm16.656 36.348a1.764 1.764 0 0 1-1.269-.528 1.657 1.657 0 0 1 0-2.344c.647-.648 1.696-.648 2.3 0 .712.6.8 1.6.2 2.3-.27.348-.7.548-1.2.572h-.031zm5.762 39.69c-.392 0-.79-.126-1.107-.382a1.665 1.665 0 0 1-.162-2.49c.648-.647 1.697-.647 2.3 0 .712.6.8 1.6.2 2.3-.27.358-.762.558-1.262.572h.031zm-5.678 40.057c-.392 0-.79-.126-1.107-.382a1.665 1.665 0 0 1-.162-2.49c.648-.647 1.697-.647 2.3 0 .712.6.8 1.6.2 2.3-.27.401-.784.601-1.184.572h-.047zm-201.62-55.666c.87-.143 1.737-.372 2.612-.41 1.61-.07 3.228-.101 4.836-.017 2.797.1 5.6.3 8.4.625 1.128.1 2.2.6 3.3.949.157 0 .3.2.5.2 1.734.1 3.3.8 5 1.215 2.077.6 4.3.4 6.5.775 1.445.2 2.9.7 4.2 1.2 1.528.6 3 1.3 4.5 2.025.09 0 .2.1.3.138 2.454 2.3 5.9 2.9 8.5 4.8 1.511 1.1 3 2.3 4.3 3.606 1.697 1.7 3.5 2.5 5.6.37 1.846-1.832 4.005-3.344 5.98-5.05 1.149-.992 2.191-2.107 3.316-3.128.727-.66 1.544-1.221 2.268-1.884.466-.427.293-.766-.263-1.052-1.788-.921-3.612-1.792-5.309-2.863-1.92-1.211-3.72-2.613-5.565-3.941-.966-.695-1.975-1.343-2.86-2.131-1.028-.915-1.918-1.984-2.911-2.943-1.138-1.099-2.346-2.126-3.477-3.233-.627-.613-1.17-1.315-1.729-1.995-1.133-1.378-2.282-2.746-3.366-4.163-.779-1.019-1.462-2.113-2.19-3.172-.652-.947-1.435-1.829-1.934-2.851-.965-1.978-1.865-4-2.615-6.068-.678-1.871-1.258-3.802-1.624-5.755-.301-1.608-.416-3.305-.263-4.929.159-1.69 1.627-2.081 3.125-1.314 1.47.8 1.5 2 1.5 3.271-.018 1.4.2 2.7.8 3.9.315.7.3 1.6.6 2.289 1.005 2.4 1.8 4.8 3.3 6.95 1.602 2.3 3.4 4.5 4.8 6.9.911 1.5 2.1 2.8 3.2 4.094 2.116 2.6 4.6 4.8 7.2 6.793.335.2.6.6.9.9.132.1.2.4.4.453 1.872 1.2 3.8 2.3 5.6 3.456.562.3 1.1.8 1.6 1.1.439.3.9.5 1.4.76.292.1.7.2.9.395.718 1 1.9 1 2.9 1.5.352.1.9 0 1.302-.178.579-.302 1.101-.735 1.597-1.169 2.318-2.032 4.898-3.667 7.562-5.2 2.803-1.614 5.524-3.372 8.315-5.006 1.079-.632 2.258-1.092 3.385-1.643.444-.217.962-.382 1.286-.723 1.102-1.159 2.625-1.325 4.007-1.813 1.636-.578 3.318-1.03 4.933-1.657 2.076-.806 4.177-1.421 6.419-1.442 1.343-.013 2.8.3 4.007-.079 1.857-.566 3.4.2 5 .702 1.279.4 2.6.9 3.6 1.7.843.7 1.4 1.8 1.9 2.832.957 2.3 1.9 4.6 1.8 7.067-.131 2.354-.679 4.654-1.873 6.7-1.083 1.861-2.154 3.792-3.587 5.368-1.254 1.38-2.954 2.384-4.549 3.414-1.155.745-2.426 1.341-3.707 1.9-.907.361-1.916.464-2.878.686-2.802.644-5.576 1.528-8.415 1.86-2.293.268-4.681.014-6.994-.275-1.816-.227-3.611-.772-5.36-1.345-1.165-.382-2.232-1.061-3.342-1.61-.118-.058-.24-.214-.336-.197-1.676.308-3.028-1.078-4.646-.901-.641.07-1.346.344-1.847.744-1.08.862-2.073 1.841-3.05 2.8-.507.509-.887 1.143-1.359 1.69-.427.493-.88.968-1.359 1.411-1.524 1.409-3.038 2.831-4.612 4.2-.612.525-1.455.786-2.053 1.324-.852.767-1.618 1.645-2.325 2.55-.193.248-.209.875-.029 1.1 1.811 2.6 3.6 5.3 6 7.444 1.713 1.5 3.3 3.2 5 4.745 1.17 1 2.5 1.9 3.8 2.8.213.2.5.2.7.418.668.6 1.3 1.2 2 1.711 1.095.8 2.3 1.5 3.4 2.3 1.031.7 2 1.4 3.1 2.133 1.036.7 2.1 1.3 3.2 2.002.365.2.8.4 1.1.6 2.559 2.1 5.7 2.7 8.7 3.599.963.3 2 .4 3 .57.285.1.6.1.8.3.738.7 1.6.6 2.5.644.773 0 1.5.2 2.3.209l5.1.3c1.2.1 2.4.3 3.6.456.515.1 1 .2 1.6.086 2.556-.344 5.126-.633 7.65-1.146 1.953-.397 3.926-.863 5.37-2.505 1.383-1.573 3.162-2.595 5.197-3.111.816-.207 1.648-.231 2.3.5 1.137 1.3.9 2.508-.564 3.484-1.138.772-2.13 1.758-3.207 2.623-.511.41-1.032.839-1.616 1.1-1.161.559-2.347 1.084-3.563 1.506-1.178.408-2.402.689-3.615.987-.958.235-1.96.323-2.889.6-1.419.477-2.841.502-4.307.413-2.014-.122-4.037-.103-6.049-.243-1.011-.07-2-.409-3.011-.533a28.837 28.837 0 0 0-3.244-.212c-3.022-.029-5.89-.684-8.682-1.84-1.046-.433-2.257-.452-3.349-.795-1.659-.522-3.285-1.149-4.914-1.762-.55-.207-1.064-.512-1.598-.765-.178-.084-.411-.099-.545-.225-1.647-1.546-3.845-2.197-5.639-3.497-.289-.209-.484-.55-.775-.755-.889-.624-1.809-1.204-2.709-1.813-1.47-.995-2.918-2.025-4.409-2.988-.592-.383-1.344-.535-1.898-.956-.682-.518-1.258-1.186-1.838-1.827-1.191-1.319-2.317-2.7-3.543-3.986-.762-.8-1.857-1.339-2.454-2.229-1.421-2.12-3.376-3.698-5.148-5.454-1.743-1.728-2.262-1.289-4.005.179-.325.274-.56.658-.892.921-2.052 1.631-3.969 3.508-6.224 4.8-2.277 1.291-4.331 3.065-6.773 3.924-2.643.931-4.641 2.956-7.248 3.803-2.425.788-4.06 2.86-6.489 3.7-2.295.749-4.542 1.696-6.722 2.738-3.195 1.527-6.581 2.383-10.005 3.114-2.455.525-4.931 1.045-7.425 1.3-2.153.194-4.344-.017-6.517-.079-1.711-.049-3.42-.143-5.13-.218-.165-.007-.34.006-.494-.041-1.948-.599-3.893-1.209-5.839-1.813-.66-.205-1.362-.32-1.977-.618-2.108-1.022-4.256-1.991-6.246-3.213-1.12-.688-1.962-1.832-2.924-2.775-.092-.091-.132-.235-.224-.326-2.158-2.132-3.272-4.803-3.957-7.689-.317-1.335-.573-2.685-.893-4.019-.229-.955-.6-1.882-.764-2.846-.273-1.608-.435-3.236-.634-4.856-.02-.161.051-.332.033-.494-.485-4.33 1.312-8.004 3.387-11.574.857-1.475 1.797-2.925 2.879-4.239.828-1.006 1.922-1.799 2.927-2.652 1.375-1.168 2.689-2.439 4.19-3.418 1.813-1.183 3.794-2.11 5.706-3.141.23-.124.497-.183.725-.31 2.511-1.397 5.331-1.342 8.033-1.837-.405.011-.405.111-.405.216h.033zm-.243 4.546-.104-.326-3.081 1.125c-.308.112-.61.259-.929.3-1.573.319-3.144.491-4.515 1.556-1.698 1.319-3.577 2.404-5.352 3.627-.706.486-1.448.985-1.989 1.6a100.28 100.28 0 0 0-4.034 5.2c-.477.654-.681 1.503-1.134 2.18a8.904 8.904 0 0 0-1.512 4.6c-.084 1.784-.237 3.575-.149 5.352.054 1.1.5 2.2.8 3.223.231.9.5 1.7.7 2.5.422 1.8.8 3.6 1.2 5.471.041.2.1.4.3.518l2.7 2.7c.178.2.5.4.5.561-.163.9.5 1.3 1.1 1.58 1.691.9 3.4 1.8 5.2 2.4 2.938.9 5.8 2.4 9.1 1.671.121-.027.3 0 .4.052 2.982.8 5.8.4 8.25-1.514.17-.129.437-.127.657-.192 1.643-.48 3.4-.735 4.904-1.491 2.499-1.257 4.858-2.801 7.236-4.288 2.098-1.312 4.115-2.753 6.215-4.061 1.644-1.024 3.375-1.908 5.04-2.9.707-.421 1.346-.955 2.013-1.443.266-.194.506-.428.785-.599 3.277-2.019 6.684-3.845 9.595-6.409 1.257-1.107 2.454-2.287 3.761-3.33 1.066-.85 2.234-1.58 3.396-2.299 1.104-.683 1.277-1.503.321-2.381a19.082 19.082 0 0 0-2.402-1.884c-1.58-1.04-2.777-2.557-4.558-3.372-1.361-.623-2.524-1.666-3.849-2.386-1.651-.897-3.362-1.692-5.079-2.458-1.475-.657-2.955-1.361-4.505-1.774-2.425-.646-4.907-1.082-7.372-1.57-1.413-.28-2.833-.554-4.263-.712-2.327-.256-4.666-.399-6.996-.624-.717-.069-1.42-.277-2.135-.373a81.531 81.531 0 0 0-3.197-.351 6.802 6.802 0 0 0-1.087.007c-2.054.263-4.021.363-5.921.514h-.01zM208.719 129.8c-.38-1.143-.659-2.799-1.449-4.158-1.007-1.732-5.243-2.935-7.175-2.356-.156.047-.305.129-.446.2-1.353.806-2.701 1.618-4.055 2.421-.227.134-.473.237-.713.347-1.335.615-2.782 1.061-3.985 1.9-4.457 3.002-8.889 6.049-13.196 9.259-.971.724-2.537 1.284-2.449 3.023.008.157-.266.375-.456.5-.566.333-1.169.605-1.729.948-.207.127-.374.368-.472.594-.032.1.2.4.3.4 2.094.6 3.8 2.1 6.1 2.155.448 0 .9.4 1.3.624.233.1.5.3.7.4 2.569.1 5.1 1.2 7.7.165.144-.056.3 0 .492-.018 1.062-.191 2.14-.323 3.178-.605 1.508-.411 2.957-1.158 4.484-1.355 2.558-.33 4.71-1.502 6.506-3.117 1.689-1.519 2.958-3.505 4.4-5.296.116-.144.166-.364.191-.556.305-1.775.555-3.375.755-5.499l.019.024zm-107.301 55.9c.026.1.1.2.1.338.851-.246 1.72-.445 2.551-.748 2.847-1.037 5.681-2.11 8.518-3.172 1.021-.382 2.318-.505 3.001-1.215 1.549-1.609 4.145-1.329 5.428-3.263.076-.115.298-.128.446-.203 2.706-1.375 5.446-2.688 8.103-4.151 1.756-.966 3.412-2.121 5.076-3.246.598-.404 1.043-1.034 1.639-1.442.856-.585 1.86-.967 2.667-1.605 1.369-1.082 2.711-2.222 3.922-3.475 1.363-1.411 1.234-1.914-.446-2.919-.564-.337-1.142-.695-1.763-.879-.433-.128-1.026-.124-1.415.078-1.4.729-2.799 1.493-3.621 3-.123.219-.351.396-.562.548-2.133 1.534-4.409 2.902-6.377 4.622-2.781 2.431-6.124 3.945-9.119 6-2.899 2.006-5.998 3.719-8.98 5.608-1.971 1.249-3.893 2.574-5.83 3.876-1.134.748-2.256 1.548-3.356 2.28l.018-.032z" style="fill:#a7a9ac;fill-rule:nonzero" transform="scale(.41667)"/></svg>