<?xml version="1.0" encoding="UTF-8" standalone="no"?>
<svg width="36px" height="30px" viewBox="0 0 36 30" version="1.1" xmlns="http://www.w3.org/2000/svg" xmlns:xlink="http://www.w3.org/1999/xlink" xmlns:sketch="http://www.bohemiancoding.com/sketch/ns">
    <!-- Generator: Sketch 3.3.2 (12043) - http://www.bohemiancoding.com/sketch -->
    <title>github</title>
    <desc>Created with Sketch.</desc>
    <defs></defs>
    <g id="Page-1" stroke="none" stroke-width="1" fill="none" fill-rule="evenodd" sketch:type="MSPage">
        <path d="M34.153944,23.7563613 C31.3390585,29.4465649 23.6068702,30 18.0661578,30 C12.4427481,30 4.23982188,29.5069975 1.31997455,23.7563613 C0.232188295,21.6030534 0,19.0680662 0,16.7048346 C0,13.5941476 0.852417303,10.6552163 2.8975827,8.26653944 C2.51272265,7.09605598 2.32188295,5.85877863 2.32188295,4.6437659 C2.32188295,3.04707379 2.68447837,1.44720102 3.40648855,0 C6.77480916,0 8.92493639,1.46946565 11.4821883,3.47328244 C13.6354962,2.96119593 15.8524173,2.72582697 18.0661578,2.72582697 C20.0699746,2.72582697 22.0928753,2.94211196 24.0330789,3.40648855 C26.5680662,1.42811705 28.721374,0 32.0419847,0 C32.7671756,1.44720102 33.129771,3.04707379 33.129771,4.6437659 C33.129771,5.85877863 32.9389313,7.07379135 32.5540712,8.22519084 C34.5992366,10.6329517 35.4516539,13.5941476 35.4516539,16.7048346 C35.4516539,19.0680662 35.216285,21.5839695 34.153944,23.7563613 L34.153944,23.7563613 Z M25.225827,14.3161578 C23.8199746,14.3161578 22.4777354,14.5737913 21.071883,14.7678117 C19.9618321,14.9332061 18.8549618,15 17.725827,15 C16.5966921,15 15.4898219,14.9332061 14.379771,14.7678117 C12.9961832,14.5737913 11.6316794,14.3161578 10.225827,14.3161578 C6.75254453,14.3161578 4.77099237,17.1946565 4.77099237,20.4548346 C4.77099237,26.9751908 10.7379135,27.9739186 15.9351145,27.9739186 L19.5133588,27.9739186 C24.7137405,27.9739186 30.6806616,26.9751908 30.6806616,20.4548346 C30.6806616,17.1946565 28.6991094,14.3161578 25.225827,14.3161578 L25.225827,14.3161578 Z M10.9064885,24.5451654 C8.98854962,24.5451654 8.18066158,22.0101781 8.18066158,20.4548346 C8.18066158,18.8963104 8.98854962,16.3645038 10.9064885,16.3645038 C12.8244275,16.3645038 13.6354962,18.8963104 13.6354962,20.4548346 C13.6354962,22.0101781 12.8244275,24.5451654 10.9064885,24.5451654 L10.9064885,24.5451654 Z M24.5419847,24.5451654 C22.6240458,24.5451654 21.8161578,22.0101781 21.8161578,20.4548346 C21.8161578,18.8963104 22.6240458,16.3645038 24.5419847,16.3645038 C26.4599237,16.3645038 27.2709924,18.8963104 27.2709924,20.4548346 C27.2709924,22.0101781 26.4599237,24.5451654 24.5419847,24.5451654 L24.5419847,24.5451654 Z" id="github" fill="#FFFFFF" sketch:type="MSShapeGroup"></path>
    </g>
</svg>