<?xml version="1.0" encoding="UTF-8" standalone="no"?>
<svg width="96px" height="96px" viewBox="0 0 96 96" version="1.1" xmlns="http://www.w3.org/2000/svg" xmlns:xlink="http://www.w3.org/1999/xlink" xmlns:sketch="http://www.bohemiancoding.com/sketch/ns">
    <!-- Generator: Sketch 3.4.3 (16044) - http://www.bohemiancoding.com/sketch -->
    <title>noun_12196_cc</title>
    <desc>Created with Sketch.</desc>
    <defs></defs>
    <g id="Page-1" stroke="none" stroke-width="1" fill="none" fill-rule="evenodd" sketch:type="MSPage">
        <g id="noun_12196_cc" sketch:type="MSLayerGroup" fill="#000000">
            <path d="M88.879,40.277 C87.795,34.538 85.549,29.209 82.367,24.557 C84.43,21.495 84.118,17.298 81.413,14.591 C78.799,11.976 74.484,11.663 71.455,13.642 C66.801,10.455 61.467,8.204 55.723,7.121 C55.02,3.498 51.828,0.749 48,0.749 C44.172,0.749 40.98,3.498 40.277,7.121 C34.533,8.205 29.201,10.453 24.548,13.64 C21.518,11.662 17.199,11.98 14.59,14.592 C11.882,17.297 11.569,21.496 13.635,24.558 C10.451,29.209 8.205,34.538 7.121,40.278 C3.498,40.98 0.749,44.172 0.749,48 C0.749,51.828 3.498,55.02 7.121,55.723 C8.205,61.465 10.451,66.794 13.635,71.448 C11.57,74.51 11.885,78.709 14.592,81.414 C16.078,82.903 18.057,83.719 20.158,83.719 C21.752,83.719 23.271,83.245 24.562,82.371 C29.212,85.552 34.541,87.796 40.277,88.88 C40.98,92.503 44.172,95.252 48,95.252 C51.828,95.252 55.02,92.503 55.723,88.88 C61.462,87.796 66.789,85.552 71.438,82.371 C72.729,83.245 74.25,83.719 75.842,83.719 C77.946,83.719 79.924,82.904 81.413,81.414 C84.118,78.709 84.431,74.507 82.365,71.446 C85.549,66.795 87.795,61.463 88.879,55.723 C92.502,55.02 95.251,51.828 95.251,48 C95.251,44.172 92.502,40.98 88.879,40.277 L88.879,40.277 Z M89.494,50.563 C88.91,51.046 88.19,51.374 87.375,51.374 C86.452,51.374 85.615,50.998 85.004,50.395 C84.387,49.783 84.001,48.938 84.001,48 C84.001,47.062 84.387,46.218 85.004,45.605 C85.615,45.001 86.452,44.626 87.375,44.626 C88.19,44.626 88.91,44.953 89.494,45.437 C90.244,46.055 90.749,46.956 90.749,48 C90.749,49.044 90.244,49.945 89.494,50.563 L89.494,50.563 Z M84.398,40.846 C82.217,41.738 80.554,43 79.865,46 L61.296,46 C60.951,43 60.149,41.939 58.991,40.312 L72.121,27.124 C73.256,27.739 74.518,28.064 75.844,28.064 C76.905,28.064 77.932,27.902 78.879,27.506 C81.527,31.467 83.435,36.012 84.398,40.846 L84.398,40.846 Z M48,90.749 C46.955,90.749 46.055,90.244 45.437,89.494 C44.954,88.91 44.626,88.19 44.626,87.375 C44.626,86.452 45.002,85.615 45.605,85.004 C46.217,84.387 47.062,84.001 48,84.001 C48.938,84.001 49.782,84.387 50.395,85.004 C50.999,85.615 51.374,86.452 51.374,87.375 C51.374,88.19 51.047,88.91 50.563,89.494 C49.945,90.244 49.045,90.749 48,90.749 L48,90.749 Z M48,5.251 C49.045,5.251 49.945,5.756 50.563,6.506 C51.046,7.09 51.374,7.81 51.374,8.625 C51.374,9.548 50.998,10.385 50.395,10.996 C49.783,11.613 48.938,11.999 48,11.999 C47.062,11.999 46.218,11.613 45.605,10.996 C45.001,10.385 44.626,9.548 44.626,8.625 C44.626,7.81 44.953,7.09 45.437,6.506 C46.055,5.756 46.955,5.251 48,5.251 L48,5.251 Z M56.999,48 C56.999,48.781 56.867,49.528 56.682,50.251 C56.467,51.066 56.145,51.833 55.725,52.541 C54.949,53.857 53.86,54.948 52.546,55.725 C51.833,56.145 51.067,56.467 50.251,56.682 C49.525,56.868 48.781,56.999 48,56.999 C47.219,56.999 46.475,56.867 45.749,56.682 C44.934,56.467 44.167,56.145 43.457,55.725 C42.141,54.949 41.052,53.86 40.275,52.543 C39.855,51.833 39.533,51.066 39.318,50.251 C39.132,49.528 39.001,48.781 39.001,48 C39.001,47.219 39.133,46.475 39.318,45.752 C39.533,44.934 39.855,44.167 40.275,43.454 C41.051,42.141 42.142,41.052 43.459,40.275 C44.167,39.855 44.934,39.533 45.749,39.318 C46.475,39.132 47.219,39.001 48,39.001 C48.781,39.001 49.525,39.133 50.251,39.318 C51.066,39.533 51.833,39.855 52.543,40.275 C53.859,41.051 54.948,42.14 55.725,43.457 C56.145,44.167 56.467,44.934 56.682,45.752 C56.867,46.475 56.999,47.219 56.999,48 L56.999,48 Z M75.515,16.85 C75.629,16.838 75.73,16.785 75.847,16.785 C76.745,16.785 77.595,17.137 78.23,17.774 C78.975,18.518 79.251,19.516 79.153,20.491 C79.08,21.238 78.803,21.975 78.23,22.547 C77.585,23.192 76.702,23.504 75.818,23.499 C74.954,23.494 74.089,23.179 73.46,22.547 C72.801,21.888 72.472,21.021 72.474,20.154 C72.474,19.292 72.801,18.43 73.46,17.776 C74.014,17.219 74.743,16.928 75.515,16.85 L75.515,16.85 Z M68.942,23.874 L55.685,37.009 C54.061,35.852 53,35.049 50,34.704 L50,16.133 C53,15.446 54.262,13.783 55.154,11.602 C59.994,12.569 64.559,14.475 68.524,17.126 C67.616,19.299 67.819,21.781 68.942,23.874 L68.942,23.874 Z M40.346,11.602 C41.238,13.783 43,15.446 45,16.133 L45,34.704 C43,35.049 41.441,35.851 39.818,37.009 L26.869,23.874 C27.997,21.781 28.042,19.299 27.134,17.126 C31.099,14.475 35.506,12.568 40.346,11.602 L40.346,11.602 Z M17.771,17.773 C18.411,17.135 19.255,16.784 20.159,16.784 C20.274,16.784 20.374,16.838 20.486,16.847 C21.257,16.925 21.987,17.216 22.544,17.773 C23.201,18.429 23.528,19.52 23.53,20.382 C23.532,21.247 23.205,22 22.549,23 L22.546,23 C22.543,23 22.541,22.775 22.541,22.778 C21.911,23.405 21.047,23.603 20.183,23.611 C19.299,23.617 18.415,23.248 17.771,22.603 C17.2,22.032 16.921,21.265 16.848,20.513 C16.752,19.542 17.028,18.516 17.771,17.773 L17.771,17.773 Z M17.121,27.429 C18.07,27.825 19.099,28.034 20.158,28.034 C21.486,28.034 22.746,27.673 23.881,27.06 L37.009,40.312 C35.852,41.939 35.049,43 34.704,46 L16.135,46 C15.447,43 13.783,41.738 11.602,40.846 C12.565,36.012 14.473,31.389 17.121,27.429 L17.121,27.429 Z M5.251,48 C5.251,46.955 5.756,46.055 6.506,45.437 C7.09,44.954 7.81,44.626 8.625,44.626 C9.548,44.626 10.385,45.002 10.996,45.605 C11.613,46.217 11.999,47.062 11.999,48 C11.999,48.938 11.613,49.782 10.996,50.395 C10.385,50.999 9.548,51.374 8.625,51.374 C7.81,51.374 7.09,51.047 6.506,50.563 C5.756,49.945 5.251,49.045 5.251,48 L5.251,48 Z M11.602,55.654 C13.783,54.762 15.446,53 16.133,51 L34.704,51 C35.051,53 35.851,54.561 37.009,56.185 L23.857,69.15 C21.791,68.09 19.298,68.046 17.145,68.895 C14.484,64.926 12.57,60.506 11.602,55.654 L11.602,55.654 Z M20.466,79.133 C19.489,79.216 18.488,78.947 17.774,78.233 C17.029,77.488 16.755,76.487 16.85,75.515 C16.926,74.768 17.2,74.294 17.774,73.723 C18.41,73.088 19.255,73 20.153,73 L20.16,73 C21.061,73 21.911,73.086 22.546,73.725 C23.205,74.385 23.532,75.115 23.532,75.984 C23.532,76.843 23.203,77.641 22.546,78.296 C21.986,78.859 21.232,79.064 20.466,79.133 L20.466,79.133 Z M27.058,72.123 L39.816,58.991 C41.439,60.148 43,60.951 45,61.296 L45,79.867 C43,80.554 41.238,82.217 40.346,84.398 C35.506,83.434 31.196,81.525 27.236,78.874 C28.139,76.701 28.186,74.219 27.058,72.123 L27.058,72.123 Z M55.154,84.398 C54.262,82.217 53,80.554 50,79.867 L50,61.296 C53,60.949 54.061,60.149 55.688,58.991 L68.881,72.121 C68.266,73.256 67.936,74.518 67.936,75.844 C67.936,76.905 68.098,77.932 68.497,78.879 C64.533,81.527 59.988,83.435 55.154,84.398 L55.154,84.398 Z M78.229,78.229 C77.516,78.942 76.513,79.212 75.539,79.127 C74.769,79.062 74.284,78.79 73.721,78.229 C73.086,77.595 73,76.75 73,75.85 L73,75.844 C73,74.944 73.086,74.363 73.721,73.725 C74.359,73.086 74.941,73 75.842,73 L75.847,73 C76.745,73 77.592,73.086 78.23,73.725 C78.801,74.297 79.077,74.9 79.153,75.647 C79.248,76.618 78.972,77.487 78.229,78.229 L78.229,78.229 Z M78.854,68.613 C76.701,67.763 74.208,67.902 72.145,68.962 L58.991,56.182 C60.148,54.559 60.949,53 61.296,51 L79.867,51 C80.554,53 82.217,54.762 84.398,55.654 C83.43,60.506 81.516,64.641 78.854,68.613 L78.854,68.613 Z" id="Shape" sketch:type="MSShapeGroup"></path>
        </g>
    </g>
</svg>