<?xml version="1.0" encoding="UTF-8" standalone="no"?>
<svg width="30px" height="30px" viewBox="0 0 30 30" version="1.1" xmlns="http://www.w3.org/2000/svg" xmlns:xlink="http://www.w3.org/1999/xlink" xmlns:sketch="http://www.bohemiancoding.com/sketch/ns">
    <!-- Generator: Sketch 3.3.2 (12043) - http://www.bohemiancoding.com/sketch -->
    <title>codepen</title>
    <desc>Created with Sketch.</desc>
    <defs></defs>
    <g id="Page-1" stroke="none" stroke-width="1" fill="none" fill-rule="evenodd" sketch:type="MSPage">
        <path d="M30,19.5709763 C30,19.9883372 29.7825725,20.4081973 29.4326891,20.643119 L15.7197601,29.7825725 C15.5023326,29.9175275 15.2524159,30 15,30 C14.7500833,30 14.4976674,29.9175275 14.2802399,29.7825725 L0.569810063,20.643119 C0.217427524,20.4081973 0,19.9883372 0,19.5709763 L0,10.4290237 C0,10.0116628 0.217427524,9.59180273 0.569810063,9.35688104 L14.2802399,0.217427524 C14.4976674,0.0849716761 14.7500833,0 15,0 C15.2524159,0 15.5023326,0.0849716761 15.7197601,0.217427524 L29.4326891,9.35688104 C29.7825725,9.59180273 30,10.0116628 30,10.4290237 L30,19.5709763 L30,19.5709763 Z M5.81056315,15 L2.57914029,12.8407198 L2.57914029,17.1592802 L5.81056315,15 L5.81056315,15 Z M13.712929,9.70926358 L13.712929,3.70126624 L3.61629457,10.4290237 L8.1197934,13.443019 L13.712929,9.70926358 L13.712929,9.70926358 Z M13.712929,26.3012329 L13.712929,20.2907364 L8.1197934,16.556981 L3.61629457,19.5709763 L13.712929,26.3012329 L13.712929,26.3012329 Z M19.5534822,15 L15,11.9535155 L10.4465178,15 L15,18.0464845 L19.5534822,15 L19.5534822,15 Z M26.3837054,10.4290237 L16.2895701,3.70126624 L16.2895701,9.70926358 L21.8802066,13.443019 L26.3837054,10.4290237 L26.3837054,10.4290237 Z M26.3837054,19.5709763 L21.8802066,16.556981 L16.2895701,20.2907364 L16.2895701,26.3012329 L26.3837054,19.5709763 L26.3837054,19.5709763 Z M27.4208597,17.1592802 L27.4208597,12.8407198 L24.191936,15 L27.4208597,17.1592802 L27.4208597,17.1592802 Z" id="codepen" fill="#FFFFFF" sketch:type="MSShapeGroup"></path>
    </g>
</svg>