<?xml version="1.0" encoding="UTF-8"?>
<svg width="45px" height="45px" viewBox="0 0 45 45" version="1.1" xmlns="http://www.w3.org/2000/svg" xmlns:xlink="http://www.w3.org/1999/xlink">
    <!-- Generator: Sketch 42 (36781) - http://www.bohemiancoding.com/sketch -->
    <title>Artboard</title>
    <desc>Created with Sketch.</desc>
    <defs></defs>
    <g id="Page-1" stroke="none" stroke-width="1" fill="none" fill-rule="evenodd">
        <g id="Artboard" fill="#FFFFFF">
            <g id="email" transform="translate(4.000000, 8.000000)">
                <g id="">
                    <g id="Page-1">
                        <path d="M37,9.51668402 L37,25.9106572 C37,27.7276215 35.5133929,29.2142287 33.6964286,29.2142287 L3.30357143,29.2142287 C1.48660714,29.2142287 0,27.7276215 0,25.9106572 L0,9.51668402 C0.619419643,10.1980456 1.32142857,10.7968179 2.08537946,11.313001 C5.51283482,13.6461483 8.98158482,15.9792956 12.3470982,18.4363269 C14.0814732,19.7164608 16.2287946,21.2856572 18.4793527,21.2856572 L18.5206473,21.2856572 C20.7712054,21.2856572 22.9185268,19.7164608 24.6529018,18.4363269 C28.0184152,15.9999429 31.4871652,13.6461483 34.9352679,11.313001 C35.6785714,10.7968179 36.3805804,10.1980456 37,9.51668402 Z M37,3.44637152 C37,5.75887152 35.2862723,7.84425099 33.469308,9.10373759 C30.2483259,11.3336483 27.0066964,13.563559 23.8063616,15.8141171 C22.4642857,16.7432465 20.1930804,18.6428001 18.5206473,18.6428001 L18.4793527,18.6428001 C16.8069196,18.6428001 14.5357143,16.7432465 13.1936384,15.8141171 C9.99330357,13.563559 6.75167411,11.3336483 3.55133929,9.10373759 C2.08537946,8.11266616 0,5.77951884 0,3.90061259 C0,1.87717509 1.09430804,0.142800093 3.30357143,0.142800093 L33.6964286,0.142800093 C35.4927455,0.142800093 37,1.62940724 37,3.44637152 Z" id=""></path>
                    </g>
                </g>
            </g>
        </g>
    </g>
</svg>