<?xml version="1.0" encoding="UTF-8"?>
<svg width="45px" height="45px" viewBox="0 0 45 45" version="1.1" xmlns="http://www.w3.org/2000/svg" xmlns:xlink="http://www.w3.org/1999/xlink">
    <!-- Generator: Sketch 42 (36781) - http://www.bohemiancoding.com/sketch -->
    <title>Artboard</title>
    <desc>Created with Sketch.</desc>
    <defs></defs>
    <g id="Page-1" stroke="none" stroke-width="1" fill="none" fill-rule="evenodd">
        <g id="Artboard" fill-rule="nonzero" fill="#FFFFFF">
            <g id="linked-in" transform="translate(7.000000, 8.000000)">
                <g id="Page-1">
                    <g>
                        <path d="M3.76105745,6.98830707 L3.72140315,6.98830707 C1.4519573,6.98830707 0,5.4387392 0,3.4956787 C0,1.51601423 1.5129639,0 3.80376207,0 C6.1098119,0 7.54041688,1.51601423 7.56176919,3.4956787 C7.5831215,5.4387392 6.1098119,6.98830707 3.76105745,6.98830707 L3.76105745,6.98830707 Z M0.390442298,9.74885613 L7.1316726,9.74885613 L7.1316726,30 L0.390442298,30 L0.390442298,9.74885613 Z M31.38485,29.9969497 L24.664972,29.9969497 L24.664972,19.1682766 C24.664972,16.4504321 23.6827656,14.5927809 21.2516523,14.5927809 C19.3909507,14.5927809 18.2897814,15.8373157 17.7986782,17.0421962 C17.6339603,17.4936451 17.5729537,18.0854093 17.5729537,18.6985257 L17.5729537,29.9969497 L10.8530757,29.9969497 C10.9323843,11.649212 10.8530757,9.74885613 10.8530757,9.74885613 L17.5729537,9.74885613 L17.5729537,12.692425 L17.5332994,12.692425 C18.4117946,11.3014743 20.0071174,9.27605491 23.6431113,9.27605491 C28.0782918,9.27605491 31.38485,12.1799695 31.38485,18.3934926 L31.38485,29.9969497 L31.38485,29.9969497 Z" id="linked-in"></path>
                    </g>
                </g>
            </g>
        </g>
    </g>
</svg>