<?xml version="1.0" encoding="UTF-8" standalone="no"?>
<svg width="30px" height="30px" viewBox="0 0 30 30" version="1.1" xmlns="http://www.w3.org/2000/svg" xmlns:xlink="http://www.w3.org/1999/xlink" xmlns:sketch="http://www.bohemiancoding.com/sketch/ns">
    <!-- Generator: Sketch 3.3.2 (12043) - http://www.bohemiancoding.com/sketch -->
    <title>rss</title>
    <desc>Created with Sketch.</desc>
    <defs></defs>
    <g id="Page-1" stroke="none" stroke-width="1" fill="none" fill-rule="evenodd" sketch:type="MSPage">
        <path d="M29.6127338,29.5769272 C29.3583015,29.8504931 29.0179984,30 28.6331696,30 L25.5863434,30 C24.8643918,30 24.2664761,29.4465062 24.2251308,28.7212385 C23.5190813,16.340791 13.6566511,6.47651363 1.27852207,5.75124589 C0.556570552,5.70989291 0,5.11186513 0,4.40886438 L0,1.3614675 C0,0.979747641 0.149478948,0.639380766 0.426174022,0.38171986 C0.683786678,0.127239953 1.02408982,0 1.36439295,0 L1.42800102,0 C8.88604641,0.38171986 15.8924746,3.51500371 21.1751242,8.82090977 C26.4800366,14.1045488 29.6127338,21.1154703 29.9975625,28.5717315 C30.0198254,28.9343654 29.8894288,29.3001803 29.6127338,29.5769272 L29.6127338,29.5769272 Z M18.7262138,29.5546602 C18.4717815,29.8504931 18.1092155,30 17.7275672,30 L14.8493023,30 C14.1464332,30 13.5707803,29.4687732 13.5071722,28.7657725 C12.890174,22.2669918 7.73474047,17.1105927 1.23717683,16.490298 C0.53430773,16.429859 0,15.8509172 0,15.1479164 L0,12.2722935 C0,11.8905736 0.149478948,11.5279398 0.448436844,11.2734599 C0.683786678,11.034885 1.02408982,10.907645 1.36439295,10.907645 L1.47252666,10.907645 C6.00778155,11.2734599 10.2917846,13.2552221 13.5071722,16.490298 C16.7448226,19.7094688 18.7262138,23.9942742 19.0887797,28.5303785 C19.1110425,28.9152794 18.9838264,29.2779133 18.7262138,29.5546602 L18.7262138,29.5546602 Z M4.08999845,30 C1.83191222,30 0,28.1677447 0,25.9092355 C0,23.6507263 1.83191222,21.818471 4.08999845,21.818471 C6.34808469,21.818471 8.17999691,23.6507263 8.17999691,25.9092355 C8.17999691,28.1677447 6.34808469,30 4.08999845,30 L4.08999845,30 Z" id="rss" fill="#FFFFFF" sketch:type="MSShapeGroup"></path>
    </g>
</svg>