<svg xmlns="http://www.w3.org/2000/svg" xmlns:xlink="http://www.w3.org/1999/xlink" version="1.1" xml:space="preserve" width="100%" height="100%" viewBox="0 0 300 300"><style>.style0{fill:	#A7A9AC;}</style><path d="M152.661 293.759h-0.032c-0.916 0-1.657-0.741-1.657-1.657c0-0.916 0.741-1.657 1.657-1.657 c0.916 0 1.7 0.7 1.7 1.657C154.302 293 153.6 293.8 152.7 293.759z" class="style0"/><path d="M142.635 293.597c-0.136 0-0.304-0.02-0.434-0.052c-0.89-0.223-1.428-1.123-1.208-2.01 c0.204-0.816 0.945-1.324 1.8-1.246c0.842 0.1 1.5 0.8 1.5 1.651C144.293 292.9 143.6 293.6 142.6 293.597z" class="style0"/><path d="M162.641 293.231c-0.745 0-1.421-0.502-1.609-1.256c-0.22-0.887 0.317-1.787 1.208-2.01 c1.01-0.246 2.1 0.6 2.1 1.605c0 0.861-0.66 1.57-1.502 1.651C162.768 293.2 162.7 293.2 162.6 293.231z" class="style0"/><path d="M132.648 292.736c-0.136 0-0.304-0.02-0.434-0.052c-0.889-0.223-1.429-1.123-1.206-2.01 c0.202-0.816 0.983-1.334 1.795-1.246c0.842 0.1 1.5 0.8 1.5 1.651C134.306 292 133.6 292.7 132.6 292.736z" class="style0"/><path d="M172.589 292.001c-0.916 0-1.657-0.741-1.657-1.657c0-0.812 0.586-1.489 1.359-1.632 c0.796-0.171 1.6 0.3 1.9 1.101c0.288 0.868-0.181 1.806-1.049 2.098C172.978 292 172.8 292 172.6 292.001z" class="style0"/><path d="M122.746 291.172c-0.108 0-0.217-0.01-0.325-0.033c-0.775-0.139-1.364-0.815-1.364-1.631 c0-1.068 1.117-1.875 2.144-1.587c0.881 0.2 1.4 1.2 1.1 2.046C124.131 290.7 123.5 291.2 122.7 291.172z" class="style0"/><path d="M182.427 290.068c-0.916 0-1.657-0.741-1.657-1.657c0-0.812 0.586-1.489 1.36-1.632 c0.806-0.165 1.6 0.3 1.9 1.101c0.288 0.868-0.181 1.806-1.049 2.098C182.816 290 182.6 290.1 182.4 290.068z" class="style0"/><path d="M112.976 288.913c-0.149 0-0.301-0.02-0.452-0.065c-0.024-0.006-0.079-0.023-0.102-0.029 c-0.868-0.291-1.337-1.23-1.048-2.098c0.288-0.867 1.217-1.343 2.096-1.049c0.855 0.3 1.3 1.2 1.1 2.1 C114.326 288.4 113.7 288.9 113 288.913z" class="style0"/><path d="M192.1 287.446c-0.745 0-1.421-0.502-1.609-1.256c-0.22-0.887 0.317-1.787 1.208-2.01 c0.877-0.214 1.8 0.3 2 1.14c0.249 0.855-0.207 1.751-1.052 2.033c-0.042 0.013-0.113 0.035-0.155 0 C192.369 287.4 192.2 287.4 192.1 287.446z" class="style0"/><path d="M103.392 285.967c-0.149 0-0.301-0.02-0.451-0.065c-0.024-0.007-0.079-0.023-0.102-0.029 c-0.868-0.291-1.337-1.23-1.047-2.098c0.288-0.865 1.217-1.34 2.096-1.049c0.855 0.3 1.3 1.2 1.1 2.1 C104.742 285.5 104.1 286 103.4 285.967z" class="style0"/><path d="M201.566 284.141c-0.606 0-1.191-0.336-1.483-0.916c-0.408-0.819-0.078-1.813 0.741-2.224 c0.861-0.288 1.9 0.1 2.2 0.997c0.281 0.842-0.036 1.7-0.845 2.017C201.993 284.1 201.8 284.1 201.6 284.141z" class="style0"/><path d="M94.09 282.347c-0.196 0-0.392-0.029-0.579-0.091c-0.104-0.036-0.235-0.094-0.329-0.146 c-0.795-0.456-1.072-1.47-0.617-2.263c0.45-0.793 1.465-1.068 2.261-0.618c0.867 0.3 1.2 1.2 0.9 2 C95.513 281.9 94.8 282.3 94.1 282.347z" class="style0"/><path d="M210.766 280.178c-0.534 0-1.059-0.259-1.379-0.738c-0.508-0.761-0.301-1.79 0.46-2.299 c0.123-0.081 0.285-0.159 0.424-0.207c0.871-0.285 1.8 0.2 2.1 1.049c0.272 0.819-0.13 1.7-0.907 2 C211.238 280.1 211 280.2 210.8 280.178z" class="style0"/><path d="M84.954 278.061c-0.275 0-0.552-0.068-0.804-0.21c-0.704-0.372-1.055-1.208-0.795-1.988 c0.29-0.865 1.224-1.34 2.096-1.049c0.139 0 0.3 0.1 0.4 0.211c0.761 0.5 1 1.5 0.5 2.3 C86.015 277.8 85.5 278.1 85 278.061z" class="style0"/><path d="M219.659 275.575c-0.693 0-1.34-0.44-1.573-1.133c-0.259-0.78 0.094-1.615 0.796-1.988 c0.757-0.421 1.703-0.194 2.2 0.528c0.508 0.8 0.3 1.79-0.46 2.299c-0.123 0.081-0.285 0.162-0.424 0.2 C220.008 275.5 219.8 275.6 219.7 275.575z" class="style0"/><path d="M76.206 273.154c-0.275 0-0.552-0.068-0.805-0.21c-0.704-0.372-1.055-1.208-0.795-1.988 c0.29-0.865 1.224-1.34 2.096-1.049c0.139 0 0.3 0.1 0.4 0.21c0.761 0.5 1 1.5 0.5 2.3 C77.268 272.9 76.7 273.2 76.2 273.154z" class="style0"/><path d="M228.211 270.347c-0.534 0-1.059-0.259-1.379-0.738c-0.508-0.761-0.301-1.79 0.46-2.298 c0.757-0.505 1.8-0.311 2.3 0.45c0.505 0.8 0.3 1.78-0.447 2.289l-0.029 0 C228.849 270.3 228.5 270.3 228.2 270.347z" class="style0"/><path d="M67.812 267.634c-0.311 0-0.625-0.087-0.905-0.275c-0.04-0.026-0.107-0.074-0.144-0.103 c-0.714-0.573-0.83-1.615-0.259-2.331c0.573-0.712 1.617-0.825 2.331-0.259c0.693 0.6 0.8 1.6 0.3 2.3 C68.825 267.4 68.3 267.6 67.8 267.634z" class="style0"/><path d="M236.379 264.536c-0.424 0-0.848-0.162-1.172-0.486c-0.647-0.647-0.647-1.696 0-2.344 c0.078-0.078 0.188-0.165 0.278-0.226c0.761-0.512 1.79-0.301 2.3 0.46c0.489 0.7 0.3 1.725-0.388 2.2 C237.097 264.4 236.7 264.5 236.4 264.536z" class="style0"/><path d="M59.926 261.565c-0.39 0-0.787-0.126-1.106-0.382c-0.047-0.039-0.118-0.103-0.162-0.146 c-0.647-0.647-0.647-1.696 0-2.344c0.647-0.647 1.696-0.647 2.3 0c0.714 0.6 0.8 1.6 0.2 2.3 C60.889 261.4 60.4 261.6 59.9 261.565z" class="style0"/><path d="M244.112 258.162c-0.317 0-0.638-0.091-0.919-0.278c-0.761-0.508-0.968-1.537-0.46-2.298 c0.12-0.181 0.304-0.363 0.486-0.482c0.761-0.511 1.787-0.301 2.3 0.459c0.466 0.7 0.3 1.628-0.288 2.2 C244.919 258 244.5 258.2 244.1 258.162z" class="style0"/><path d="M52.487 254.961c-0.422 0-0.851-0.143-1.186-0.408c-0.086-0.071-0.191-0.171-0.262-0.256 c-0.586-0.702-0.491-1.748 0.212-2.334c0.707-0.589 1.75-0.489 2.3 0.21c0.714 0.6 0.7 1.5 0.1 2.2 C53.432 254.8 53 255 52.5 254.961z" class="style0"/><path d="M251.39 251.257c-0.424 0-0.848-0.162-1.172-0.486c-0.647-0.647-0.647-1.696 0-2.344 s1.706-0.657 2.357-0.013c0.644 0.6 0.7 1.7 0 2.334l-0.023 0.023C252.238 251.1 251.8 251.3 251.4 251.257z" class="style0"/><path d="M44.102 247.259c-0.647-0.647-0.647-1.696 0-2.344s1.696-0.647 2.3 0L44.102 247.259z" class="style0"/><path d="M258.159 243.867c-0.534 0-1.058-0.259-1.379-0.738c-0.431-0.648-0.346-1.486 0.155-2.036 c0.537-0.622 1.473-0.751 2.166-0.288c0.761 0.5 1 1.5 0.5 2.298c-0.12 0.181-0.301 0.366-0.482 0.5 C258.797 243.8 258.5 243.9 258.2 243.867z" class="style0"/><path d="M38.78 240.153c-0.487 0-0.965-0.214-1.288-0.612c-0.502-0.592-0.533-1.476-0.029-2.107 c0.576-0.709 1.615-0.829 2.331-0.259c0.133 0.1 0.3 0.3 0.4 0.401c0.508 0.8 0.3 1.79-0.46 2.3 C39.415 240.1 39.1 240.2 38.8 240.153z" class="style0"/><path d="M264.4 236.013c-0.424 0-0.848-0.162-1.172-0.486c-0.647-0.647-0.647-1.696 0-2.344 c0.505-0.764 1.441-0.858 2.205-0.346c0.761 0.5 0.9 1.7 0.4 2.412c-0.061 0.09-0.149 0.201-0.226 0.3 C265.248 235.9 264.8 236 264.4 236.013z" class="style0"/><path d="M32.814 232.099c-0.508 0-1.007-0.233-1.329-0.664c-0.508-0.651-0.463-1.593 0.136-2.191 c0.647-0.647 1.696-0.647 2.3 0c0.078 0.1 0.2 0.2 0.2 0.278c0.508 0.8 0.3 1.79-0.46 2.3 C33.448 232 33.1 232.1 32.8 232.099z" class="style0"/><path d="M270.072 227.735c-0.317 0-0.638-0.09-0.92-0.278c-0.761-0.508-0.968-1.538-0.459-2.298 c0.505-0.761 1.544-0.981 2.308-0.476c0.76 0.5 1 1.5 0.5 2.286l-0.02 0 C271.13 227.5 270.6 227.7 270.1 227.735z" class="style0"/><path d="M27.296 223.566c-0.539 0-1.039-0.266-1.323-0.78c-0.432-0.751-0.212-1.719 0.518-2.204 c0.762-0.512 1.79-0.301 2.3 0.46c0.409 0.8 0.1 1.916-0.682 2.327C27.843 223.5 27.6 223.6 27.3 223.566z" class="style0"/><path d="M275.148 219.079c-0.175 0-0.349-0.026-0.524-0.084c-0.867-0.291-1.337-1.23-1.049-2.098 c0.049-0.139 0.13-0.301 0.21-0.424c0.512-0.764 1.534-0.961 2.299-0.459c0.725 0.5 0.9 1.4 0.5 2.2 C276.323 218.7 275.8 219.1 275.1 219.079z" class="style0"/><path d="M22.638 214.829c-0.602 0-1.178-0.33-1.467-0.906l-0.015-0.029c-0.409-0.819-0.078-1.813 0.742-2.224 c0.817-0.414 1.813-0.074 2.2 0.741c0.409 0.8 0.1 1.829-0.735 2.237C23.146 214.8 22.9 214.8 22.6 214.829z" class="style0"/><path d="M279.602 210.086c-0.317 0-0.638-0.091-0.92-0.278c-0.69-0.46-0.923-1.347-0.586-2.075 c0.343-0.777 1.224-1.162 2.043-0.906c0.868 0.3 1.3 1.2 1 2.098c-0.049 0.139-0.126 0.301-0.207 0.4 C280.661 209.8 280.1 210.1 279.6 210.086z" class="style0"/><path d="M18.674 205.845c-0.662 0-1.334-0.427-1.641-1.043c-0.053-0.107-0.108-0.256-0.138-0.372 c-0.223-0.887 0.317-1.787 1.206-2.01c0.882-0.217 1.8 0.3 2 1.207c0.409 0.8 0 1.661-0.798 2.1 C19.109 205.8 18.9 205.8 18.7 205.845z" class="style0"/><path d="M283.4 200.802c-0.249 0-0.502-0.055-0.741-0.175c-0.819-0.411-1.149-1.405-0.742-2.224 c0.291-0.868 1.198-1.237 2.059-0.955c0.867 0.3 1.3 1.3 1 2.188c-0.026 0.075-0.068 0.178-0.103 0.2 C284.591 200.5 284 200.8 283.4 200.802z" class="style0"/><path d="M15.016 196.305c-0.691 0-1.329-0.431-1.557-1.12c-0.015-0.042-0.036-0.113-0.045-0.155 c-0.223-0.887 0.317-1.787 1.206-2.01c0.882-0.213 1.8 0.3 2 1.208c0.217 0.864-0.283 1.761-1.139 2 C15.331 196.3 15.2 196.3 15 196.305z" class="style0"/><path d="M286.533 191.271c-0.133 0-0.266-0.016-0.401-0.049c-0.89-0.223-1.428-1.123-1.208-2.01l3.218 0.8 C287.954 190.8 287.3 191.3 286.5 191.271z" class="style0"/><path d="M12.33 186.823c-0.73 0-1.437-0.544-1.677-1.263c-0.036-0.103-0.068-0.243-0.081-0.349 c-0.113-0.91 0.531-1.738 1.439-1.852c0.916-0.13 1.7 0.5 1.9 1.437c0.29 0.871-0.212 1.667-1.081 2 C12.633 186.8 12.5 186.8 12.3 186.823z" class="style0"/><path d="M288.977 181.55c-0.916 0-1.657-0.742-1.657-1.657c0-0.178 0.035-0.389 0.09-0.557 c0.295-0.868 1.237-1.331 2.098-1.049c0.802 0.3 1.3 1.1 1.1 1.903C290.466 181 289.8 181.6 289 181.55z" class="style0"/><path d="M8.494 175.606c-0.223-0.887 0.317-1.787 1.206-2.01c0.879-0.214 1.8 0.3 2 1.207L8.494 175.606z" class="style0"/><path d="M290.732 171.677c-0.133 0-0.266-0.016-0.401-0.049c-0.819-0.204-1.34-0.984-1.246-1.8 c0.081-0.838 0.79-1.499 1.651-1.499l0 0c0.916 0 1.7 0.7 1.7 1.657c0 0.136-0.02 0.304-0.052 0.4 C292.153 171.2 291.5 171.7 290.7 171.677z" class="style0"/><path d="M8.734 167.086c-0.813 0-1.541-0.68-1.679-1.502c-0.015-0.091-0.026-0.214-0.026-0.304 c0-0.916 0.741-1.657 1.657-1.657c0.916 0 1.7 0.7 1.7 1.657c0.151 0.903-0.469 1.638-1.373 1.8 C8.893 167.1 8.8 167.1 8.7 167.086z" class="style0"/><path d="M291.774 161.709c-0.133 0-0.266-0.016-0.401-0.048c-0.819-0.204-1.34-0.984-1.246-1.797 c0.081-0.842 0.79-1.502 1.651-1.502l0 0c0.916 0 1.7 0.7 1.7 1.657c0 0.136-0.019 0.304-0.052 0.4 C293.195 161.2 292.5 161.7 291.8 161.709z" class="style0"/><path d="M7.965 156.853c-0.89 0-1.61-0.589-1.649-1.467c-0.055-0.868 0.574-1.638 1.449-1.748 c0.918-0.136 1.7 0.5 1.9 1.437C9.615 156 8.9 156.9 8 156.853z" class="style0"/><path d="M7.943 147.044L7.943 147.044c-0.915-0.002-1.65-0.843-1.65-1.758c0-0.078 0.007-0.191 0.018-0.269 c0.13-0.905 0.966-1.528 1.876-1.407c0.907 0.1 1.5 1 1.4 1.876C9.592 146.4 8.9 147 7.9 147.044z" class="style0"/><path d="M291.742 141.078c-0.722 0-1.386-0.474-1.593-1.203c-0.042-0.147-0.068-0.335-0.068-0.489 c0-0.914 0.741-1.657 1.657-1.657c0.865 0 1.6 0.7 1.7 1.504c0.09 0.791-0.401 1.555-1.191 1.8 C292.046 141.1 291.9 141.1 291.7 141.078z" class="style0"/><path d="M8.605 136.805c-0.068 0-0.134-0.005-0.202-0.015c-0.882-0.126-1.514-0.8-1.426-1.672 c0.068-0.853 0.782-1.525 1.653-1.525c0.916 0 1.7 0.7 1.7 1.657C10.167 136.1 9.4 136.8 8.6 136.805z" class="style0"/><path d="M290.651 131.108c-0.693 0-1.34-0.439-1.573-1.133c-0.055-0.17-0.088-0.379-0.088-0.557 c0-0.915 0.741-1.657 1.657-1.657c0.858 0 1.6 0.7 1.6 1.492c0.094 0.766-0.359 1.517-1.12 1.8 C291.001 131.1 290.8 131.1 290.7 131.108z" class="style0"/><path d="M10.016 127.144c-0.092 0-0.186-0.007-0.28-0.02c-0.906-0.129-1.505-1.097-1.376-2.004 c0.015-0.099 0.044-0.228 0.076-0.322c0.29-0.868 1.224-1.34 2.096-1.048c0.868 0.3 1.3 1.2 1 2.1 C11.465 126.7 10.8 127.1 10 127.144z" class="style0"/><path d="M288.867 121.247c-0.816 0-1.492-0.589-1.632-1.364c-0.168-0.839 0.333-1.68 1.172-1.918 c0.887-0.254 1.8 0.3 2 1.138c0.042 0.1 0.1 0.3 0.1 0.487C290.525 120.5 289.8 121.2 288.9 121.247z" class="style0"/><path d="M12.054 117.087c-0.134 0-0.27-0.018-0.404-0.057c-0.865-0.246-1.395-1.034-1.177-1.895 c0.199-0.843 1.031-1.405 1.886-1.256c0.903 0.1 1.5 1 1.4 1.907C13.509 116.5 12.8 117.1 12.1 117.087z" class="style0"/><path d="M286.374 111.524c-0.692 0-1.334-0.432-1.563-1.123l3.156-1.012l-1.593 0.455l1.596-0.45 c0.249 0.866-0.236 1.785-1.098 2.054C286.708 111.5 286.5 111.5 286.4 111.524z" class="style0"/><path d="M14.841 107.55c-0.16 0-0.322-0.023-0.483-0.073c-0.861-0.266-1.356-1.156-1.109-2.022 c0.006-0.024 0.024-0.079 0.032-0.102c0.288-0.868 1.217-1.339 2.096-1.047c0.868 0.3 1.3 1.2 1 2.1 C16.194 107.1 15.5 107.5 14.8 107.55z" class="style0"/><path d="M283.218 102.018c-0.573 0-1.133-0.299-1.441-0.835c-0.052-0.095-0.11-0.225-0.146-0.329 c-0.288-0.869 0.181-1.806 1.049-2.096c0.835-0.277 1.7 0.1 2.1 0.937c0.337 0.8 0 1.68-0.696 2.1 C283.781 101.9 283.5 102 283.2 102.018z" class="style0"/><path d="M18.294 98.14c-0.249 0-0.502-0.057-0.742-0.175c-0.788-0.395-1.125-1.334-0.783-2.133 c0.314-0.782 1.173-1.208 1.993-0.975c0.88 0.3 1.4 1.2 1.1 2.049c-0.029 0.099-0.079 0.225-0.125 0.3 C19.486 97.8 18.9 98.1 18.3 98.14z" class="style0"/><path d="M279.392 92.768c-0.573 0-1.133-0.3-1.441-0.835c-0.052-0.095-0.11-0.225-0.146-0.329 c-0.288-0.869 0.181-1.806 1.049-2.096c0.835-0.278 1.7 0.1 2.1 0.937c0.337 0.8 0 1.68-0.696 2.1 C279.955 92.7 279.7 92.8 279.4 92.768z" class="style0"/><path d="M23.941 87.946l-3.046-1.305c0.359-0.845 1.34-1.235 2.176-0.871C23.912 86.1 24.3 87.1 23.9 87.9 z" class="style0"/><path d="M274.915 83.804c-0.605 0-1.175-0.333-1.463-0.881c-0.418-0.748-0.194-1.703 0.528-2.185 c0.761-0.505 1.787-0.306 2.3 0.459c0.081 0.1 0.2 0.3 0.2 0.424c0.288 0.869-0.181 1.808-1.049 2.1 C275.264 83.8 275.1 83.8 274.9 83.804z" class="style0"/><path d="M27.157 80.233c-0.262 0-0.534-0.063-0.792-0.193c-0.819-0.409-1.107-1.478-0.697-2.297 c0.03-0.061 0.081-0.15 0.12-0.207c0.507-0.762 1.531-0.969 2.299-0.459c0.762 0.5 1 1.5 0.5 2.3 C28.266 79.9 27.7 80.2 27.2 80.233z" class="style0"/><path d="M269.819 75.176c-0.486 0-0.968-0.212-1.295-0.622l2.59-2.072c0.57 0.7 0.5 1.758-0.259 2.3 C270.548 75.1 270.2 75.2 269.8 75.176z" class="style0"/><path d="M32.507 71.641c-0.337 0-0.677-0.102-0.967-0.314c-0.717-0.524-0.903-1.505-0.411-2.244 c0.026-0.04 0.075-0.107 0.104-0.144c0.574-0.711 1.615-0.83 2.331-0.259c0.714 0.6 0.8 1.6 0.3 2.3 C33.492 71.4 33 71.6 32.5 71.641z" class="style0"/><path d="M264.122 66.93c-0.534 0-1.059-0.259-1.379-0.738c-0.492-0.738-0.324-1.747 0.392-2.271 c0.719-0.526 1.709-0.4 2.3 0.29c0.029 0 0.1 0.1 0.1 0.143c0.508 0.8 0.3 1.79-0.46 2.3 C264.759 66.8 264.4 66.9 264.1 66.93z" class="style0"/><path d="M38.45 63.56c-0.367 0-0.735-0.12-1.039-0.369c-0.704-0.574-0.824-1.596-0.257-2.307 c0.008-0.008 0.036-0.042 0.042-0.052c0.587-0.701 1.63-0.797 2.336-0.212c0.702 0.6 0.8 1.6 0.2 2.3 C39.412 63.4 38.9 63.6 38.5 63.56z" class="style0"/><path d="M257.864 59.102c-0.424 0-0.848-0.162-1.172-0.486c-0.573-0.714-0.527-1.837 0.188-2.41 c0.699-0.557 1.641-0.537 2.2 0.131c0.586 0.7 0.6 1.653-0.061 2.279C258.712 58.9 258.3 59.1 257.9 59.102z" class="style0"/><path d="M44.971 55.813c-0.414 0-0.822-0.143-1.126-0.447c-0.636-0.634-0.717-1.58-0.109-2.227 c0.583-0.647 1.575-0.735 2.265-0.183c0.714 0.6 0.8 1.6 0.3 2.331C45.915 55.6 45.4 55.8 45 55.813z" class="style0"/><path d="M251.066 51.729c-0.376 0-0.751-0.126-1.062-0.384c-0.084-0.071-0.185-0.177-0.256-0.262 c-0.57-0.716-0.456-1.758 0.259-2.329c0.693-0.545 1.671-0.46 2.3 0.168c0.579 0.6 0.6 1.6 0.1 2.2 C252.011 51.5 251.5 51.7 251.1 51.729z" class="style0"/><path d="M51.917 48.84c-0.426 0-0.855-0.175-1.191-0.511c-0.646-0.647-0.591-1.745 0.057-2.392 c0.044-0.044 0.113-0.107 0.16-0.146c0.717-0.573 1.759-0.452 2.3 0.259c0.571 0.7 0.5 1.758-0.259 2.3 C52.702 48.7 52.3 48.8 51.9 48.84z" class="style0"/><path d="M243.773 44.85c-0.424 0-0.848-0.162-1.172-0.486c-0.628-0.627-0.664-1.646-0.065-2.302 c0.602-0.652 1.589-0.732 2.273-0.167c0.039 0 0.1 0.1 0.1 0.125c0.647 0.6 0.6 1.7 0 2.3 C244.621 44.7 244.2 44.9 243.8 44.85z" class="style0"/><path d="M60.536 41.702l-2.119-2.551c0.712-0.573 1.755-0.472 2.3 0.2 C61.326 40.1 61.2 41.1 60.5 41.702z" class="style0"/><path d="M236.007 38.499c-0.424 0-0.848-0.162-1.172-0.486c-0.761-0.508-0.855-1.444-0.346-2.205 c0.508-0.76 1.651-0.872 2.412-0.366c0.091 0.1 0.2 0.1 0.3 0.227c0.647 0.6 0.6 1.7 0 2.3 C236.855 38.3 236.4 38.5 236 38.499z" class="style0"/><path d="M68.454 35.61l-2.072-2.59c0.717-0.573 1.756-0.455 2.3 0.259C69.285 34 69.2 35 68.5 35.61z" class="style0"/><path d="M227.82 32.707c-0.249 0-0.502-0.057-0.741-0.175c-0.761-0.509-1.068-1.596-0.564-2.359 c0.495-0.743 1.389-1.02 2.146-0.552c0.745 0.4 1 1.4 0.6 2.169C229.011 32.4 228.4 32.7 227.8 32.707z" class="style0"/><path d="M75.759 30.435c-0.552 0-1.091-0.27-1.405-0.766c-0.481-0.761-0.282-1.758 0.468-2.256 c0.023-0.015 0.071-0.047 0.094-0.06c0.787-0.471 1.803-0.215 2.3 0.568c0.471 0.8 0.2 1.803-0.568 2.3 C76.353 30.4 76.1 30.4 75.8 30.435z" class="style0"/><path d="M219.241 27.507c-0.317 0-0.638-0.091-0.919-0.278c-0.819-0.41-1.075-1.361-0.667-2.18 c0.411-0.821 1.486-1.103 2.298-0.698c0.062 0 0.1 0.1 0.2 0.12c0.761 0.5 1 1.5 0.5 2.3 C220.299 27.2 219.8 27.5 219.2 27.507z" class="style0"/><path d="M84.48 25.498c-0.61 0-1.2-0.332-1.489-0.911c-0.409-0.817-0.092-1.806 0.727-2.216l0.029-0.015 c0.819-0.404 1.811-0.076 2.2 0.742c0.409 0.8 0.1 1.814-0.742 2.224C84.99 25.4 84.7 25.5 84.5 25.498z" class="style0"/><path d="M210.31 22.924c-0.249 0-0.502-0.057-0.742-0.175c-0.819-0.409-1.165-1.413-0.754-2.231 c0.411-0.82 1.389-1.157 2.208-0.749l0.029 0.015c0.819 0.4 1.1 1.4 0.7 2.224C211.501 22.6 210.9 22.9 210.3 22.924z " class="style0"/><path d="M93.31 21.293c-0.584 0-1.121-0.364-1.418-0.956c-0.408-0.819 0.05-1.863 0.869-2.273 c0.092-0.045 0.218-0.095 0.317-0.125c0.885-0.246 1.8 0.3 2 1.14c0.251 0.879-0.259 1.797-1.14 2 C93.763 21.2 93.5 21.3 93.3 21.293z" class="style0"/><path d="M201.08 18.983c-0.194 0-0.392-0.034-0.583-0.105c-0.845-0.317-1.298-1.259-0.997-2.111 c0.304-0.85 1.214-1.311 2.072-1.025c0.02 0 0.1 0 0.1 0.031c0.858 0.3 1.3 1.3 1 2.1 C202.382 18.6 201.8 19 201.1 18.983z" class="style0"/><path d="M103.507 17.403l-1.304-3.046c0.833-0.369 1.8 0 2.2 0.9 C104.739 16.1 104.3 17 103.5 17.403z" class="style0"/><path d="M191.589 15.712c-0.133 0-0.266-0.016-0.401-0.05l0.803-3.214c0.89 0.2 1.4 1.1 1.2 2 C193.01 15.2 192.3 15.7 191.6 15.712z" class="style0"/><path d="M112.257 14.593c-0.707 0-1.324-0.487-1.533-1.219c-0.251-0.881 0.333-1.813 1.214-2.066 c0.06-0.016 0.154-0.039 0.215-0.048c0.911-0.165 1.8 0.5 1.9 1.363c0.15 0.902-0.46 1.756-1.363 1.9 C112.55 14.6 112.4 14.6 112.3 14.593z" class="style0"/><path d="M181.906 13.125c-0.071 0-0.139-0.005-0.211-0.013c-0.107-0.013-0.246-0.045-0.349-0.081 c-0.868-0.288-1.337-1.227-1.049-2.096c0.278-0.832 1.156-1.296 1.985-1.081c0.816 0.2 1.4 1 1.3 1.8 C183.444 12.5 182.7 13.1 181.9 13.125z" class="style0"/><path d="M122.454 12.185c-0.83 0-1.665-0.563-1.782-1.386c-0.126-0.877 0.309-1.657 1.159-1.824 c0.822-0.18 1.7 0.3 1.9 1.096c0.29 0.869-0.18 1.808-1.047 2.096C122.623 12.2 122.5 12.2 122.5 12.185z" class="style0"/><path d="M172.058 11.232c-0.071 0-0.139-0.005-0.21-0.013l0.414-3.289c0.907 0.1 1.6 0.9 1.4 1.9 C173.596 10.6 172.9 11.2 172.1 11.232z" class="style0"/><path d="M132.351 10.626l-0.533-3.271c0.924-0.149 1.7 0.5 1.9 1.4 C133.846 9.6 133.2 10.5 132.4 10.626z" class="style0"/><path d="M162.101 10.039c-0.903-0.15-1.664-1.016-1.515-1.92c0.146-0.871 0.822-1.5 1.657-1.389 c0.848 0.1 1.5 0.8 1.5 1.651C163.758 9.3 163 10 162.1 10.039z" class="style0"/><path d="M142.273 9.738c-0.916 0-1.777-0.735-1.777-1.65c0-0.892 0.592-1.612 1.467-1.649 c0.874-0.024 1.6 0.6 1.7 1.449C143.823 8.8 143.2 9.6 142.3 9.738z" class="style0"/><path d="M152.088 9.545c-0.916 0-1.674-0.741-1.674-1.657s0.725-1.657 1.641-1.657h0.032 c0.916 0 1.7 0.7 1.7 1.657S153.004 9.5 152.1 9.545z" class="style0"/><g><path d="M150 300C67.289 300 0 232.7 0 150S67.289 0 150 0s150 67.3 150 150S232.711 300 150 300z M150 1.7 C68.203 1.7 1.7 68.2 1.7 150c0 81.8 66.5 148.3 148.3 148.343c81.795 0 148.343-66.548 148.343-148.343 C298.343 68.2 231.8 1.7 150 1.657z" class="style0"/></g><path d="M45.37 247.787c-0.39 0-0.787-0.126-1.106-0.382c-0.047-0.039-0.118-0.104-0.162-0.146 c-0.647-0.647-0.647-1.696 0-2.344s1.696-0.647 2.3 0c0.714 0.6 0.8 1.6 0.2 2.3 C46.333 247.6 45.9 247.8 45.4 247.787z" class="style0"/><path d="M10.119 176.905c-0.39 0-0.787-0.126-1.106-0.382c-0.047-0.039-0.118-0.104-0.162-0.146 c-0.647-0.647-0.647-1.696 0-2.344c0.647-0.647 1.696-0.647 2.3 0c0.714 0.6 0.8 1.6 0.2 2.3 C11.083 176.7 10.6 176.9 10.1 176.905z" class="style0"/><path d="M22.529 88.991c-0.39 0-0.787-0.126-1.106-0.382c-0.047-0.039-0.118-0.104-0.162-0.146 c-0.647-0.647-0.647-1.696 0-2.344c0.647-0.647 1.696-0.647 2.3 0c0.714 0.6 0.8 1.6 0.2 2.3 C23.492 88.8 23 89 22.5 88.991z" class="style0"/><path d="M59.463 42.137c-0.39 0-0.787-0.126-1.106-0.382c-0.047-0.039-0.118-0.104-0.162-0.146 c-0.647-0.647-0.647-1.696 0-2.344c0.647-0.647 1.696-0.647 2.3 0c0.714 0.6 0.8 1.6 0.2 2.3 C60.426 41.9 59.9 42.1 59.5 42.137z" class="style0"/><path d="M67.41 36.013c-0.39 0-0.787-0.126-1.105-0.382c-0.047-0.039-0.118-0.103-0.162-0.146 c-0.647-0.647-0.647-1.696 0-2.344c0.647-0.648 1.696-0.648 2.3 0c0.714 0.6 0.8 1.6 0.2 2.3 C68.373 35.8 67.9 36 67.4 36.013z" class="style0"/><path d="M102.847 17.489c-0.39 0-0.787-0.126-1.106-0.382c-0.047-0.039-0.118-0.103-0.162-0.146 c-0.647-0.647-0.647-1.696 0-2.344c0.647-0.647 1.696-0.647 2.3 0c0.714 0.6 0.8 1.6 0.2 2.3 C103.81 17.3 103.3 17.5 102.8 17.489z" class="style0"/><path d="M132.063 10.658c-0.392 0-0.79-0.126-1.107-0.382c-0.045-0.039-0.117-0.104-0.162-0.146 c-0.648-0.648-0.648-1.697 0-2.344c0.647-0.647 1.696-0.647 2.3 0c0.712 0.6 0.8 1.6 0.2 2.3 C133.024 10.5 132.5 10.7 132.1 10.658z" class="style0"/><path d="M172.049 11.223c-0.392 0-0.79-0.126-1.107-0.382c-0.045-0.039-0.117-0.103-0.162-0.146 c-0.648-0.647-0.648-1.697 0-2.344c0.647-0.647 1.696-0.647 2.3 0c0.712 0.6 0.8 1.6 0.2 2.3 C173.01 11 172.5 11.2 172 11.223z" class="style0"/><path d="M191.582 15.658c-0.391 0-0.79-0.126-1.107-0.382c-0.045-0.039-0.117-0.104-0.162-0.146 c-0.647-0.648-0.647-1.697 0-2.344c0.647-0.647 1.697-0.647 2.3 0c0.712 0.6 0.8 1.6 0.2 2.3 C192.544 15.5 192.1 15.7 191.6 15.658z" class="style0"/><path d="M269.813 75.176c-0.392 0-0.79-0.126-1.107-0.382c-0.045-0.039-0.117-0.104-0.162-0.146 c-0.647-0.647-0.647-1.696 0-2.344c0.648-0.647 1.697-0.647 2.3 0c0.712 0.6 0.8 1.6 0.2 2.3 C270.774 75 270.3 75.2 269.8 75.176z" class="style0"/><path d="M286.469 111.524c-0.392 0-0.79-0.126-1.107-0.382c-0.045-0.039-0.117-0.103-0.162-0.146 c-0.648-0.647-0.648-1.696 0-2.344c0.647-0.648 1.696-0.648 2.3 0c0.712 0.6 0.8 1.6 0.2 2.3 C287.43 111.3 287 111.5 286.5 111.524z" class="style0"/><path d="M292.231 151.214c-0.392 0-0.79-0.126-1.107-0.382c-0.045-0.039-0.117-0.104-0.162-0.146 c-0.647-0.647-0.647-1.696 0-2.344c0.648-0.647 1.697-0.647 2.3 0c0.712 0.6 0.8 1.6 0.2 2.3 C293.192 151 292.7 151.2 292.2 151.214z" class="style0"/><path d="M286.553 191.271c-0.392 0-0.79-0.126-1.107-0.382c-0.045-0.039-0.117-0.104-0.162-0.146 c-0.647-0.647-0.647-1.696 0-2.344c0.648-0.647 1.697-0.647 2.3 0c0.712 0.6 0.8 1.6 0.2 2.3 C287.514 191.1 287 191.3 286.6 191.271z" class="style0"/><g><g><path d="M84.933 135.605c0.87-0.143 1.737-0.372 2.612-0.41c1.61-0.07 3.228-0.101 4.836-0.017 c2.797 0.1 5.6 0.3 8.4 0.625c1.128 0.1 2.2 0.6 3.3 0.949c0.157 0 0.3 0.2 0.5 0.2 c1.734 0.1 3.3 0.8 5 1.215c2.077 0.6 4.3 0.4 6.5 0.775c1.445 0.2 2.9 0.7 4.2 1.2 c1.528 0.6 3 1.3 4.5 2.025c0.09 0 0.2 0.1 0.3 0.138c2.454 2.3 5.9 2.9 8.5 4.8 c1.511 1.1 3 2.3 4.3 3.606c1.697 1.7 3.5 2.5 5.6 0.37c1.846-1.832 4.005-3.344 5.98-5.05 c1.149-0.992 2.191-2.107 3.316-3.128c0.727-0.66 1.544-1.221 2.268-1.884c0.466-0.427 0.293-0.766-0.263-1.052 c-1.788-0.921-3.612-1.792-5.309-2.863c-1.92-1.211-3.72-2.613-5.565-3.941c-0.966-0.695-1.975-1.343-2.86-2.131 c-1.028-0.915-1.918-1.984-2.911-2.943c-1.138-1.099-2.346-2.126-3.477-3.233c-0.627-0.613-1.17-1.315-1.729-1.995 c-1.133-1.378-2.282-2.746-3.366-4.163c-0.779-1.019-1.462-2.113-2.19-3.172c-0.652-0.947-1.435-1.829-1.934-2.851 c-0.965-1.978-1.865-4-2.615-6.068c-0.678-1.871-1.258-3.802-1.624-5.755c-0.301-1.608-0.416-3.305-0.263-4.929 c0.159-1.69 1.627-2.081 3.125-1.314c1.47 0.8 1.5 2 1.5 3.271c-0.018 1.4 0.2 2.7 0.8 3.9 c0.315 0.7 0.3 1.6 0.6 2.289c1.005 2.4 1.8 4.8 3.3 6.95c1.602 2.3 3.4 4.5 4.8 6.9 c0.911 1.5 2.1 2.8 3.2 4.094c2.116 2.6 4.6 4.8 7.2 6.793c0.335 0.2 0.6 0.6 0.9 0.9 c0.132 0.1 0.2 0.4 0.4 0.453c1.872 1.2 3.8 2.3 5.6 3.456c0.562 0.3 1.1 0.8 1.6 1.1 c0.439 0.3 0.9 0.5 1.4 0.76c0.292 0.1 0.7 0.2 0.9 0.395c0.718 1 1.9 1 2.9 1.5 c0.352 0.1 0.9 0 1.302-0.178c0.579-0.302 1.101-0.735 1.597-1.169c2.318-2.032 4.898-3.667 7.562-5.2 c2.803-1.614 5.524-3.372 8.315-5.006c1.079-0.632 2.258-1.092 3.385-1.643c0.444-0.217 0.962-0.382 1.286-0.723 c1.102-1.159 2.625-1.325 4.007-1.813c1.636-0.578 3.318-1.03 4.933-1.657c2.076-0.806 4.177-1.421 6.419-1.442 c1.343-0.013 2.8 0.3 4.007-0.079c1.857-0.566 3.4 0.2 5 0.702c1.279 0.4 2.6 0.9 3.6 1.7 c0.843 0.7 1.4 1.8 1.9 2.832c0.957 2.3 1.9 4.6 1.8 7.067c-0.131 2.354-0.679 4.654-1.873 6.7 c-1.083 1.861-2.154 3.792-3.587 5.368c-1.254 1.38-2.954 2.384-4.549 3.414c-1.155 0.745-2.426 1.341-3.707 1.9 c-0.907 0.361-1.916 0.464-2.878 0.686c-2.802 0.644-5.576 1.528-8.415 1.86c-2.293 0.268-4.681 0.014-6.994-0.275 c-1.816-0.227-3.611-0.772-5.36-1.345c-1.165-0.382-2.232-1.061-3.342-1.61c-0.118-0.058-0.24-0.214-0.336-0.197 c-1.676 0.308-3.028-1.078-4.646-0.901c-0.641 0.07-1.346 0.344-1.847 0.744c-1.08 0.862-2.073 1.841-3.05 2.8 c-0.507 0.509-0.887 1.143-1.359 1.69c-0.427 0.493-0.88 0.968-1.359 1.411c-1.524 1.409-3.038 2.831-4.612 4.2 c-0.612 0.525-1.455 0.786-2.053 1.324c-0.852 0.767-1.618 1.645-2.325 2.55c-0.193 0.248-0.209 0.875-0.029 1.1 c1.811 2.6 3.6 5.3 6 7.444c1.713 1.5 3.3 3.2 5 4.745c1.17 1 2.5 1.9 3.8 2.8 c0.213 0.2 0.5 0.2 0.7 0.418c0.668 0.6 1.3 1.2 2 1.711c1.095 0.8 2.3 1.5 3.4 2.3 c1.031 0.7 2 1.4 3.1 2.133c1.036 0.7 2.1 1.3 3.2 2.002c0.365 0.2 0.8 0.4 1.1 0.6 c2.559 2.1 5.7 2.7 8.7 3.599c0.963 0.3 2 0.4 3 0.57c0.285 0.1 0.6 0.1 0.8 0.3 c0.738 0.7 1.6 0.6 2.5 0.644c0.773 0 1.5 0.2 2.3 0.209c1.713 0.1 3.4 0.2 5.1 0.3 c1.2 0.1 2.4 0.3 3.6 0.456c0.515 0.1 1 0.2 1.6 0.086c2.556-0.344 5.126-0.633 7.65-1.146 c1.953-0.397 3.926-0.863 5.37-2.505c1.383-1.573 3.162-2.595 5.197-3.111c0.816-0.207 1.648-0.231 2.3 0.5 c1.137 1.3 0.9 2.508-0.564 3.484c-1.138 0.772-2.13 1.758-3.207 2.623c-0.511 0.41-1.032 0.839-1.616 1.1 c-1.161 0.559-2.347 1.084-3.563 1.506c-1.178 0.408-2.402 0.689-3.615 0.987c-0.958 0.235-1.96 0.323-2.889 0.6 c-1.419 0.477-2.841 0.502-4.307 0.413c-2.014-0.122-4.037-0.103-6.049-0.243c-1.011-0.07-2-0.409-3.011-0.533 c-1.074-0.132-2.162-0.202-3.244-0.212c-3.022-0.029-5.89-0.684-8.682-1.84c-1.046-0.433-2.257-0.452-3.349-0.795 c-1.659-0.522-3.285-1.149-4.914-1.762c-0.55-0.207-1.064-0.512-1.598-0.765c-0.178-0.084-0.411-0.099-0.545-0.225 c-1.647-1.546-3.845-2.197-5.639-3.497c-0.289-0.209-0.484-0.55-0.775-0.755c-0.889-0.624-1.809-1.204-2.709-1.813 c-1.47-0.995-2.918-2.025-4.409-2.988c-0.592-0.383-1.344-0.535-1.898-0.956c-0.682-0.518-1.258-1.186-1.838-1.827 c-1.191-1.319-2.317-2.7-3.543-3.986c-0.762-0.8-1.857-1.339-2.454-2.229c-1.421-2.12-3.376-3.698-5.148-5.454 c-1.743-1.728-2.262-1.289-4.005 0.179c-0.325 0.274-0.56 0.658-0.892 0.921c-2.052 1.631-3.969 3.508-6.224 4.8 c-2.277 1.291-4.331 3.065-6.773 3.924c-2.643 0.931-4.641 2.956-7.248 3.803c-2.425 0.788-4.06 2.86-6.489 3.7 c-2.295 0.749-4.542 1.696-6.722 2.738c-3.195 1.527-6.581 2.383-10.005 3.114c-2.455 0.525-4.931 1.045-7.425 1.3 c-2.153 0.194-4.344-0.017-6.517-0.079c-1.711-0.049-3.42-0.143-5.13-0.218c-0.165-0.007-0.34 0.006-0.494-0.041 c-1.948-0.599-3.893-1.209-5.839-1.813c-0.66-0.205-1.362-0.32-1.977-0.618c-2.108-1.022-4.256-1.991-6.246-3.213 c-1.12-0.688-1.962-1.832-2.924-2.775c-0.092-0.091-0.132-0.235-0.224-0.326c-2.158-2.132-3.272-4.803-3.957-7.689 c-0.317-1.335-0.573-2.685-0.893-4.019c-0.229-0.955-0.6-1.882-0.764-2.846c-0.273-1.608-0.435-3.236-0.634-4.856 c-0.02-0.161 0.051-0.332 0.033-0.494c-0.485-4.33 1.312-8.004 3.387-11.574c0.857-1.475 1.797-2.925 2.879-4.239 c0.828-1.006 1.922-1.799 2.927-2.652c1.375-1.168 2.689-2.439 4.19-3.418c1.813-1.183 3.794-2.11 5.706-3.141 c0.23-0.124 0.497-0.183 0.725-0.31c2.511-1.397 5.331-1.342 8.033-1.837C84.9 135.4 84.9 135.5 84.9 135.605z M84.69 140.151c-0.035-0.109-0.069-0.217-0.104-0.326c-1.027 0.375-2.054 0.751-3.081 1.125c-0.308 0.112-0.61 0.259-0.929 0.3 c-1.573 0.319-3.144 0.491-4.515 1.556c-1.698 1.319-3.577 2.404-5.352 3.627c-0.706 0.486-1.448 0.985-1.989 1.6 c-1.405 1.683-2.742 3.427-4.034 5.2c-0.477 0.654-0.681 1.503-1.134 2.18c-0.946 1.413-1.432 2.956-1.512 4.6 c-0.084 1.784-0.237 3.575-0.149 5.352c0.054 1.1 0.5 2.2 0.8 3.223c0.231 0.9 0.5 1.7 0.7 2.5 c0.422 1.8 0.8 3.6 1.2 5.471c0.041 0.2 0.1 0.4 0.3 0.518c0.899 0.9 1.8 1.8 2.7 2.7 c0.178 0.2 0.5 0.4 0.5 0.561c-0.163 0.9 0.5 1.3 1.1 1.58c1.691 0.9 3.4 1.8 5.2 2.4 c2.938 0.9 5.8 2.4 9.1 1.671c0.121-0.027 0.3 0 0.4 0.052c2.982 0.8 5.8 0.4 8.25-1.514 c0.17-0.129 0.437-0.127 0.657-0.192c1.643-0.48 3.4-0.735 4.904-1.491c2.499-1.257 4.858-2.801 7.236-4.288 c2.098-1.312 4.115-2.753 6.215-4.061c1.644-1.024 3.375-1.908 5.04-2.9c0.707-0.421 1.346-0.955 2.013-1.443 c0.266-0.194 0.506-0.428 0.785-0.599c3.277-2.019 6.684-3.845 9.595-6.409c1.257-1.107 2.454-2.287 3.761-3.33 c1.066-0.85 2.234-1.58 3.396-2.299c1.104-0.683 1.277-1.503 0.321-2.381c-0.748-0.687-1.555-1.326-2.402-1.884 c-1.58-1.04-2.777-2.557-4.558-3.372c-1.361-0.623-2.524-1.666-3.849-2.386c-1.651-0.897-3.362-1.692-5.079-2.458 c-1.475-0.657-2.955-1.361-4.505-1.774c-2.425-0.646-4.907-1.082-7.372-1.57c-1.413-0.28-2.833-0.554-4.263-0.712 c-2.327-0.256-4.666-0.399-6.996-0.624c-0.717-0.069-1.42-0.277-2.135-0.373c-1.062-0.142-2.13-0.251-3.197-0.351 c-0.359-0.034-0.726-0.017-1.087 0.007C88.567 139.9 86.6 140 84.7 140.151z M208.719 129.8 c-0.38-1.143-0.659-2.799-1.449-4.158c-1.007-1.732-5.243-2.935-7.175-2.356c-0.156 0.047-0.305 0.129-0.446 0.2 c-1.353 0.806-2.701 1.618-4.055 2.421c-0.227 0.134-0.473 0.237-0.713 0.347c-1.335 0.615-2.782 1.061-3.985 1.9 c-4.457 3.002-8.889 6.049-13.196 9.259c-0.971 0.724-2.537 1.284-2.449 3.023c0.008 0.157-0.266 0.375-0.456 0.5 c-0.566 0.333-1.169 0.605-1.729 0.948c-0.207 0.127-0.374 0.368-0.472 0.594c-0.032 0.1 0.2 0.4 0.3 0.4 c2.094 0.6 3.8 2.1 6.1 2.155c0.448 0 0.9 0.4 1.3 0.624c0.233 0.1 0.5 0.3 0.7 0.4 c2.569 0.1 5.1 1.2 7.7 0.165c0.144-0.056 0.3 0 0.492-0.018c1.062-0.191 2.14-0.323 3.178-0.605 c1.508-0.411 2.957-1.158 4.484-1.355c2.558-0.33 4.71-1.502 6.506-3.117c1.689-1.519 2.958-3.505 4.4-5.296 c0.116-0.144 0.166-0.364 0.191-0.556C208.25 133.5 208.5 131.9 208.7 129.776z M101.418 185.7 c0.026 0.1 0.1 0.2 0.1 0.338c0.851-0.246 1.72-0.445 2.551-0.748c2.847-1.037 5.681-2.11 8.518-3.172 c1.021-0.382 2.318-0.505 3.001-1.215c1.549-1.609 4.145-1.329 5.428-3.263c0.076-0.115 0.298-0.128 0.446-0.203 c2.706-1.375 5.446-2.688 8.103-4.151c1.756-0.966 3.412-2.121 5.076-3.246c0.598-0.404 1.043-1.034 1.639-1.442 c0.856-0.585 1.86-0.967 2.667-1.605c1.369-1.082 2.711-2.222 3.922-3.475c1.363-1.411 1.234-1.914-0.446-2.919 c-0.564-0.337-1.142-0.695-1.763-0.879c-0.433-0.128-1.026-0.124-1.415 0.078c-1.4 0.729-2.799 1.493-3.621 3 c-0.123 0.219-0.351 0.396-0.562 0.548c-2.133 1.534-4.409 2.902-6.377 4.622c-2.781 2.431-6.124 3.945-9.119 6 c-2.899 2.006-5.998 3.719-8.98 5.608c-1.971 1.249-3.893 2.574-5.83 3.876C103.622 184.2 102.5 185 101.4 185.732z" class="style0"/></g></g></svg>