<?xml version="1.0" encoding="UTF-8"?>
<svg width="45px" height="45px" viewBox="0 0 45 45" version="1.1" xmlns="http://www.w3.org/2000/svg" xmlns:xlink="http://www.w3.org/1999/xlink">
    <!-- Generator: Sketch 42 (36781) - http://www.bohemiancoding.com/sketch -->
    <title>Artboard</title>
    <desc>Created with Sketch.</desc>
    <defs></defs>
    <g id="Page-1" stroke="none" stroke-width="1" fill="none" fill-rule="evenodd">
        <g id="Artboard" fill-rule="nonzero" fill="#FFFFFF">
            <g id="twitter" transform="translate(4.000000, 7.000000)">
                <g id="Page-1">
                    <path d="M33.16655,8.46046186 C33.16655,18.4674598 25.5458362,30 11.6235129,30 C7.33729881,30 3.3519944,28.7578726 0,26.6025192 C0.608817355,26.6724983 1.19314206,26.6969909 1.82645206,26.6969909 C5.36738978,26.6969909 8.62491253,25.5003499 11.2246326,23.4604619 C7.89713086,23.3939818 5.10846746,21.2141358 4.14975507,18.2120364 C4.61511547,18.2820154 5.08747376,18.3275017 5.5773268,18.3275017 C6.25962211,18.3275017 6.93491952,18.236529 7.57172848,18.0720784 C4.10076977,17.3687894 1.50104969,14.3212036 1.50104969,10.6403079 L1.50104969,10.5493352 C2.50874738,11.1091672 3.67739678,11.4590623 4.92302309,11.5080476 C2.88313506,10.1469559 1.54653604,7.82715185 1.54653604,5.20293912 C1.54653604,3.79636109 1.92092372,2.50874738 2.57872638,1.38558432 C6.30510847,5.97620714 11.9069279,8.97480756 18.1875437,9.30370889 C18.0720784,8.74387684 18.0020994,8.15605318 18.0020994,7.57172848 C18.0020994,3.40097971 21.3750875,0 25.5703289,0 C27.7501749,0 29.720084,0.916724983 31.1021693,2.39328202 C32.8131561,2.06438069 34.4541638,1.42757173 35.9062281,0.563331001 C35.3428971,2.31980406 34.1497551,3.79636109 32.5787264,4.73757873 C34.1007698,4.57312806 35.5773268,4.14975507 36.9384185,3.56543037 C35.9062281,5.06298111 34.6186144,6.39958013 33.1420574,7.47725682 C33.16655,7.80615815 33.16655,8.13156053 33.16655,8.46046186 Z" id="twitter"></path>
                </g>
            </g>
        </g>
    </g>
</svg>